<svg width="47" height="48" viewBox="0 0 47 48" fill="none" xmlns="http://www.w3.org/2000/svg">
<mask id="mask0_4_366" style="mask-type:alpha" maskUnits="userSpaceOnUse" x="0" y="0" width="47" height="48">
<circle cx="23.5444" cy="24.0996" r="22.8135" fill="#C883E5" stroke="#EA9F67"/>
</mask>
<g mask="url(#mask0_4_366)">
<circle cx="23.5444" cy="24.0996" r="22.8135" fill="#F9D94E"/>
<line y1="-0.5" x2="49.0292" y2="-0.5" transform="matrix(0.711173 -0.703017 0.711173 0.703017 -9.00964 28.3972)" stroke="#EA9F67"/>
<line y1="-0.5" x2="49.0292" y2="-0.5" transform="matrix(0.711173 -0.703017 0.711173 0.703017 -6.74329 30.2422)" stroke="#EA9F67"/>
<line y1="-0.5" x2="49.0292" y2="-0.5" transform="matrix(0.711173 -0.703017 0.711173 0.703017 -4.47681 32.0872)" stroke="#EA9F67"/>
<line y1="-0.5" x2="49.0292" y2="-0.5" transform="matrix(0.711173 -0.703017 0.711173 0.703017 -2.21045 33.9324)" stroke="#EA9F67"/>
<line y1="-0.5" x2="49.0292" y2="-0.5" transform="matrix(0.711173 -0.703017 0.711173 0.703017 0.0560303 35.7773)" stroke="#EA9F67"/>
<line y1="-0.5" x2="49.0292" y2="-0.5" transform="matrix(0.711173 -0.703017 0.711173 0.703017 2.32239 37.6223)" stroke="#EA9F67"/>
<line y1="-0.5" x2="49.0292" y2="-0.5" transform="matrix(0.711173 -0.703017 0.711173 0.703017 4.58887 39.4673)" stroke="#EA9F67"/>
<line y1="-0.5" x2="49.0292" y2="-0.5" transform="matrix(0.711173 -0.703017 0.711173 0.703017 6.85522 41.3123)" stroke="#EA9F67"/>
<line y1="-0.5" x2="49.0292" y2="-0.5" transform="matrix(0.711173 -0.703017 0.711173 0.703017 9.12164 43.1572)" stroke="#EA9F67"/>
<line y1="-0.5" x2="49.0292" y2="-0.5" transform="matrix(0.711173 -0.703017 0.711173 0.703017 11.3881 45.0022)" stroke="#EA9F67"/>
<line y1="-0.5" x2="49.0292" y2="-0.5" transform="matrix(0.711173 -0.703017 0.711173 0.703017 13.6545 46.8472)" stroke="#EA9F67"/>
<line y1="-0.5" x2="49.0292" y2="-0.5" transform="matrix(0.711173 -0.703017 0.711173 0.703017 15.9209 48.6921)" stroke="#EA9F67"/>
<line y1="-0.5" x2="49.0292" y2="-0.5" transform="matrix(0.711173 -0.703017 0.711173 0.703017 18.1873 50.5374)" stroke="#EA9F67"/>
<line y1="-0.5" x2="49.0292" y2="-0.5" transform="matrix(0.711173 -0.703017 0.711173 0.703017 20.4537 52.3823)" stroke="#EA9F67"/>
<line y1="-0.5" x2="49.0292" y2="-0.5" transform="matrix(0.711173 -0.703017 0.711173 0.703017 22.7202 54.2273)" stroke="#EA9F67"/>
</g>
</svg>
