<svg width="48" height="48" viewBox="0 0 48 48" fill="none" xmlns="http://www.w3.org/2000/svg">
<mask id="mask0_4_953" style="mask-type:alpha" maskUnits="userSpaceOnUse" x="0" y="0" width="48" height="48">
<circle cx="24.156" cy="24.0996" r="22.8135" fill="#C883E5" stroke="#EA9F67"/>
</mask>
<g mask="url(#mask0_4_953)">
<circle cx="24.156" cy="24.0996" r="22.8135" fill="#C883E5"/>
<line y1="-0.5" x2="49.0292" y2="-0.5" transform="matrix(0.711173 -0.703017 0.711173 0.703017 -8.39807 28.3972)" stroke="#EA9F67"/>
<line y1="-0.5" x2="49.0292" y2="-0.5" transform="matrix(0.711173 -0.703017 0.711173 0.703017 -6.13171 30.2422)" stroke="#EA9F67"/>
<line y1="-0.5" x2="49.0292" y2="-0.5" transform="matrix(0.711173 -0.703017 0.711173 0.703017 -3.86523 32.0872)" stroke="#EA9F67"/>
<line y1="-0.5" x2="49.0292" y2="-0.5" transform="matrix(0.711173 -0.703017 0.711173 0.703017 -1.59888 33.9324)" stroke="#EA9F67"/>
<line y1="-0.5" x2="49.0292" y2="-0.5" transform="matrix(0.711173 -0.703017 0.711173 0.703017 0.667603 35.7773)" stroke="#EA9F67"/>
<line y1="-0.5" x2="49.0292" y2="-0.5" transform="matrix(0.711173 -0.703017 0.711173 0.703017 2.93396 37.6223)" stroke="#EA9F67"/>
<line y1="-0.5" x2="49.0292" y2="-0.5" transform="matrix(0.711173 -0.703017 0.711173 0.703017 5.20044 39.4673)" stroke="#EA9F67"/>
<line y1="-0.5" x2="49.0292" y2="-0.5" transform="matrix(0.711173 -0.703017 0.711173 0.703017 7.4668 41.3123)" stroke="#EA9F67"/>
<line y1="-0.5" x2="49.0292" y2="-0.5" transform="matrix(0.711173 -0.703017 0.711173 0.703017 9.73328 43.1572)" stroke="#EA9F67"/>
<line y1="-0.5" x2="49.0292" y2="-0.5" transform="matrix(0.711173 -0.703017 0.711173 0.703017 11.9996 45.0022)" stroke="#EA9F67"/>
<line y1="-0.5" x2="49.0292" y2="-0.5" transform="matrix(0.711173 -0.703017 0.711173 0.703017 14.2661 46.8472)" stroke="#EA9F67"/>
<line y1="-0.5" x2="49.0292" y2="-0.5" transform="matrix(0.711173 -0.703017 0.711173 0.703017 16.5325 48.6921)" stroke="#EA9F67"/>
<line y1="-0.5" x2="49.0292" y2="-0.5" transform="matrix(0.711173 -0.703017 0.711173 0.703017 18.799 50.5374)" stroke="#EA9F67"/>
<line y1="-0.5" x2="49.0292" y2="-0.5" transform="matrix(0.711173 -0.703017 0.711173 0.703017 21.0653 52.3823)" stroke="#EA9F67"/>
<line y1="-0.5" x2="49.0292" y2="-0.5" transform="matrix(0.711173 -0.703017 0.711173 0.703017 23.3318 54.2273)" stroke="#EA9F67"/>
</g>
</svg>
