<svg width="48" height="48" viewBox="0 0 48 48" fill="none" xmlns="http://www.w3.org/2000/svg">
<mask id="mask0_4_305" style="mask-type:alpha" maskUnits="userSpaceOnUse" x="0" y="0" width="48" height="48">
<circle cx="24.1563" cy="23.8457" r="23.3135" fill="#C883E5"/>
</mask>
<g mask="url(#mask0_4_305)">
<circle cx="24.1563" cy="23.8457" r="23.3135" fill="#C883E5"/>
<line y1="-0.5" x2="49.0292" y2="-0.5" transform="matrix(0.711173 -0.703017 0.711173 0.703017 -8.39783 28.1433)" stroke="#9568F4"/>
<line y1="-0.5" x2="49.0292" y2="-0.5" transform="matrix(0.711173 -0.703017 0.711173 0.703017 -6.13147 29.9883)" stroke="#9568F4"/>
<line y1="-0.5" x2="49.0292" y2="-0.5" transform="matrix(0.711173 -0.703017 0.711173 0.703017 -3.86499 31.8333)" stroke="#9568F4"/>
<line y1="-0.5" x2="49.0292" y2="-0.5" transform="matrix(0.711173 -0.703017 0.711173 0.703017 -1.59863 33.6785)" stroke="#9568F4"/>
<line y1="-0.5" x2="49.0292" y2="-0.5" transform="matrix(0.711173 -0.703017 0.711173 0.703017 0.667847 35.5234)" stroke="#9568F4"/>
<line y1="-0.5" x2="49.0292" y2="-0.5" transform="matrix(0.711173 -0.703017 0.711173 0.703017 2.9342 37.3684)" stroke="#9568F4"/>
<line y1="-0.5" x2="49.0292" y2="-0.5" transform="matrix(0.711173 -0.703017 0.711173 0.703017 5.20068 39.2134)" stroke="#9568F4"/>
<line y1="-0.5" x2="49.0292" y2="-0.5" transform="matrix(0.711173 -0.703017 0.711173 0.703017 7.46704 41.0583)" stroke="#9568F4"/>
<line y1="-0.5" x2="49.0292" y2="-0.5" transform="matrix(0.711173 -0.703017 0.711173 0.703017 9.73352 42.9033)" stroke="#9568F4"/>
<line y1="-0.5" x2="49.0292" y2="-0.5" transform="matrix(0.711173 -0.703017 0.711173 0.703017 11.9999 44.7483)" stroke="#9568F4"/>
<line y1="-0.5" x2="49.0292" y2="-0.5" transform="matrix(0.711173 -0.703017 0.711173 0.703017 14.2664 46.5933)" stroke="#9568F4"/>
<line y1="-0.5" x2="49.0292" y2="-0.5" transform="matrix(0.711173 -0.703017 0.711173 0.703017 16.5327 48.4382)" stroke="#9568F4"/>
<line y1="-0.5" x2="49.0292" y2="-0.5" transform="matrix(0.711173 -0.703017 0.711173 0.703017 18.7992 50.2834)" stroke="#9568F4"/>
<line y1="-0.5" x2="49.0292" y2="-0.5" transform="matrix(0.711173 -0.703017 0.711173 0.703017 21.0656 52.1284)" stroke="#9568F4"/>
<line y1="-0.5" x2="49.0292" y2="-0.5" transform="matrix(0.711173 -0.703017 0.711173 0.703017 23.332 53.9734)" stroke="#9568F4"/>
</g>
</svg>
