<svg width="169" height="169" viewBox="0 0 169 169" fill="none" xmlns="http://www.w3.org/2000/svg">
<circle cx="84.7783" cy="84.4126" r="84" fill="#9568F4"/>
<path d="M44.5999 61.1886H39.3199V53.2206H54.0079V89.4126H44.5999V61.1886ZM71.4593 61.1886H66.1793V53.2206H80.8673V89.4126H71.4593V61.1886ZM106.883 74.7726V60.5166L98.5793 74.7726H106.883ZM115.619 74.7726H119.987V81.9726H115.619V89.4126H106.883V81.9726H89.4113V75.9246L103.235 53.2206H115.619V74.7726ZM40.8291 111.167C40.2651 110.783 39.6951 110.591 39.1191 110.591C38.8071 110.591 38.5131 110.645 38.2371 110.753C37.9731 110.861 37.7391 111.017 37.5351 111.221C37.3311 111.413 37.1691 111.647 37.0491 111.923C36.9411 112.187 36.8871 112.487 36.8871 112.823C36.8871 113.147 36.9411 113.447 37.0491 113.723C37.1691 113.987 37.3251 114.221 37.5171 114.425C37.7211 114.617 37.9611 114.767 38.2371 114.875C38.5131 114.983 38.8071 115.037 39.1191 115.037C39.7311 115.037 40.3011 114.827 40.8291 114.407V117.179C40.0251 117.527 39.2631 117.701 38.5431 117.701C37.8711 117.701 37.2291 117.587 36.6171 117.359C36.0171 117.131 35.4831 116.807 35.0151 116.387C34.5591 115.955 34.1931 115.445 33.9171 114.857C33.6411 114.257 33.5031 113.591 33.5031 112.859C33.5031 112.127 33.6351 111.461 33.8991 110.861C34.1631 110.249 34.5231 109.727 34.9791 109.295C35.4351 108.851 35.9751 108.509 36.5991 108.269C37.2351 108.017 37.9131 107.891 38.6331 107.891C39.4251 107.891 40.1571 108.059 40.8291 108.395V111.167ZM45.7653 112.751C45.7653 113.063 45.8193 113.351 45.9273 113.615C46.0473 113.867 46.1973 114.089 46.3773 114.281C46.5693 114.473 46.7913 114.623 47.0433 114.731C47.3073 114.839 47.5833 114.893 47.8713 114.893C48.1593 114.893 48.4293 114.839 48.6813 114.731C48.9453 114.623 49.1673 114.473 49.3473 114.281C49.5393 114.089 49.6893 113.867 49.7973 113.615C49.9173 113.351 49.9773 113.069 49.9773 112.769C49.9773 112.481 49.9173 112.211 49.7973 111.959C49.6893 111.695 49.5393 111.467 49.3473 111.275C49.1673 111.083 48.9453 110.933 48.6813 110.825C48.4293 110.717 48.1593 110.663 47.8713 110.663C47.5833 110.663 47.3073 110.717 47.0433 110.825C46.7913 110.933 46.5693 111.083 46.3773 111.275C46.1973 111.467 46.0473 111.689 45.9273 111.941C45.8193 112.193 45.7653 112.463 45.7653 112.751ZM42.3273 112.715C42.3273 112.031 42.4653 111.395 42.7413 110.807C43.0173 110.207 43.4013 109.691 43.8933 109.259C44.3853 108.815 44.9673 108.467 45.6393 108.215C46.3233 107.963 47.0673 107.837 47.8713 107.837C48.6633 107.837 49.3953 107.963 50.0673 108.215C50.7513 108.455 51.3393 108.797 51.8313 109.241C52.3353 109.673 52.7253 110.195 53.0013 110.807C53.2773 111.407 53.4153 112.073 53.4153 112.805C53.4153 113.537 53.2713 114.209 52.9833 114.821C52.7073 115.421 52.3233 115.943 51.8313 116.387C51.3393 116.819 50.7453 117.155 50.0493 117.395C49.3653 117.635 48.6213 117.755 47.8173 117.755C47.0253 117.755 46.2933 117.635 45.6213 117.395C44.9493 117.155 44.3673 116.813 43.8753 116.369C43.3953 115.925 43.0173 115.397 42.7413 114.785C42.4653 114.161 42.3273 113.471 42.3273 112.715ZM55.2908 108.179H58.5488V109.313C59.4368 108.461 60.4328 108.035 61.5368 108.035C62.9048 108.035 63.9488 108.611 64.6688 109.763C65.4008 108.599 66.4448 108.017 67.8008 108.017C68.2328 108.017 68.6408 108.083 69.0248 108.215C69.4088 108.335 69.7388 108.533 70.0148 108.809C70.2908 109.073 70.5068 109.421 70.6628 109.853C70.8308 110.285 70.9148 110.807 70.9148 111.419V117.413H67.6568V112.859C67.6568 112.391 67.6208 112.007 67.5488 111.707C67.4888 111.407 67.3928 111.173 67.2608 111.005C67.1408 110.837 66.9968 110.723 66.8288 110.663C66.6608 110.603 66.4808 110.573 66.2888 110.573C65.2448 110.573 64.7228 111.335 64.7228 112.859V117.413H61.4648V112.859C61.4648 112.391 61.4348 112.007 61.3748 111.707C61.3148 111.395 61.2248 111.149 61.1048 110.969C60.9968 110.789 60.8528 110.669 60.6728 110.609C60.4928 110.537 60.2828 110.501 60.0428 110.501C59.8388 110.501 59.6468 110.531 59.4668 110.591C59.2868 110.651 59.1248 110.771 58.9808 110.951C58.8488 111.119 58.7408 111.359 58.6568 111.671C58.5848 111.971 58.5488 112.367 58.5488 112.859V117.413H55.2908V108.179ZM80.8286 112.823C80.8286 112.535 80.7746 112.265 80.6666 112.013C80.5706 111.749 80.4266 111.521 80.2346 111.329C80.0426 111.137 79.8146 110.987 79.5506 110.879C79.2986 110.759 79.0226 110.699 78.7226 110.699C78.4346 110.699 78.1646 110.753 77.9126 110.861C77.6606 110.969 77.4386 111.119 77.2466 111.311C77.0666 111.503 76.9166 111.731 76.7966 111.995C76.6886 112.247 76.6346 112.517 76.6346 112.805C76.6346 113.093 76.6886 113.363 76.7966 113.615C76.9046 113.867 77.0546 114.089 77.2466 114.281C77.4386 114.461 77.6606 114.611 77.9126 114.731C78.1766 114.839 78.4526 114.893 78.7406 114.893C79.0286 114.893 79.2986 114.839 79.5506 114.731C79.8026 114.623 80.0186 114.473 80.1986 114.281C80.3906 114.089 80.5406 113.867 80.6486 113.615C80.7686 113.363 80.8286 113.099 80.8286 112.823ZM76.7246 122.021H73.4666V108.179H76.7246V109.205C77.4206 108.329 78.3686 107.891 79.5686 107.891C80.2286 107.891 80.8406 108.023 81.4046 108.287C81.9806 108.539 82.4786 108.887 82.8986 109.331C83.3186 109.775 83.6426 110.297 83.8706 110.897C84.1106 111.497 84.2306 112.139 84.2306 112.823C84.2306 113.507 84.1106 114.143 83.8706 114.731C83.6426 115.319 83.3186 115.835 82.8986 116.279C82.4906 116.723 82.0046 117.071 81.4406 117.323C80.8766 117.575 80.2646 117.701 79.6046 117.701C78.4526 117.701 77.4926 117.305 76.7246 116.513V122.021ZM89.1117 112.769C89.1117 113.069 89.1657 113.351 89.2737 113.615C89.3817 113.867 89.5257 114.089 89.7057 114.281C89.8977 114.473 90.1197 114.623 90.3717 114.731C90.6357 114.839 90.9177 114.893 91.2177 114.893C91.5057 114.893 91.7757 114.839 92.0277 114.731C92.2917 114.623 92.5137 114.473 92.6937 114.281C92.8857 114.089 93.0357 113.867 93.1437 113.615C93.2637 113.363 93.3237 113.093 93.3237 112.805C93.3237 112.517 93.2637 112.247 93.1437 111.995C93.0357 111.731 92.8857 111.503 92.6937 111.311C92.5137 111.119 92.2917 110.969 92.0277 110.861C91.7757 110.753 91.5057 110.699 91.2177 110.699C90.9177 110.699 90.6357 110.753 90.3717 110.861C90.1197 110.969 89.8977 111.119 89.7057 111.311C89.5257 111.503 89.3817 111.725 89.2737 111.977C89.1657 112.217 89.1117 112.481 89.1117 112.769ZM93.2157 108.179H96.4917V117.413H93.2157V116.387C92.5197 117.263 91.5777 117.701 90.3897 117.701C89.7177 117.701 89.0997 117.581 88.5357 117.341C87.9717 117.089 87.4797 116.741 87.0597 116.297C86.6397 115.853 86.3097 115.331 86.0697 114.731C85.8417 114.131 85.7277 113.477 85.7277 112.769C85.7277 112.109 85.8417 111.485 86.0697 110.897C86.2977 110.297 86.6157 109.775 87.0237 109.331C87.4317 108.887 87.9177 108.539 88.4817 108.287C89.0457 108.023 89.6697 107.891 90.3537 107.891C91.5057 107.891 92.4597 108.293 93.2157 109.097V108.179ZM98.7088 108.179H101.967V109.349C102.411 108.809 102.861 108.449 103.317 108.269C103.773 108.077 104.307 107.981 104.919 107.981C105.567 107.981 106.119 108.089 106.575 108.305C107.043 108.509 107.439 108.803 107.763 109.187C108.027 109.499 108.207 109.847 108.303 110.231C108.399 110.615 108.447 111.053 108.447 111.545V117.413H105.189V112.751C105.189 112.295 105.153 111.929 105.081 111.653C105.021 111.365 104.907 111.137 104.739 110.969C104.595 110.825 104.433 110.723 104.253 110.663C104.073 110.603 103.881 110.573 103.677 110.573C103.125 110.573 102.699 110.741 102.399 111.077C102.111 111.401 101.967 111.869 101.967 112.481V117.413H98.7088V108.179ZM99.9508 106.739V106.541C99.9508 106.169 99.9988 105.821 100.095 105.497C100.191 105.173 100.329 104.897 100.509 104.669C100.689 104.429 100.899 104.243 101.139 104.111C101.379 103.967 101.643 103.895 101.931 103.895C102.063 103.895 102.279 103.937 102.579 104.021C102.891 104.093 103.275 104.213 103.731 104.381C104.007 104.477 104.235 104.555 104.415 104.615C104.607 104.663 104.769 104.687 104.901 104.687C105.117 104.687 105.261 104.633 105.333 104.525C105.417 104.417 105.501 104.207 105.585 103.895H107.187C107.079 104.915 106.863 105.647 106.539 106.091C106.215 106.523 105.747 106.739 105.135 106.739C104.883 106.739 104.607 106.703 104.307 106.631C104.019 106.559 103.701 106.457 103.353 106.325L102.615 106.055C102.471 105.995 102.315 105.965 102.147 105.965C101.931 105.965 101.781 106.019 101.697 106.127C101.613 106.223 101.541 106.427 101.481 106.739H99.9508ZM113.92 108.179V117.413H110.662V108.179H113.92ZM115.432 104.057L112.3 106.829L110.788 105.713L113.362 102.563L115.432 104.057ZM119.17 112.769C119.17 113.069 119.224 113.351 119.332 113.615C119.44 113.867 119.584 114.089 119.764 114.281C119.956 114.473 120.178 114.623 120.43 114.731C120.694 114.839 120.976 114.893 121.276 114.893C121.564 114.893 121.834 114.839 122.086 114.731C122.35 114.623 122.572 114.473 122.752 114.281C122.944 114.089 123.094 113.867 123.202 113.615C123.322 113.363 123.382 113.093 123.382 112.805C123.382 112.517 123.322 112.247 123.202 111.995C123.094 111.731 122.944 111.503 122.752 111.311C122.572 111.119 122.35 110.969 122.086 110.861C121.834 110.753 121.564 110.699 121.276 110.699C120.976 110.699 120.694 110.753 120.43 110.861C120.178 110.969 119.956 111.119 119.764 111.311C119.584 111.503 119.44 111.725 119.332 111.977C119.224 112.217 119.17 112.481 119.17 112.769ZM123.274 108.179H126.55V117.413H123.274V116.387C122.578 117.263 121.636 117.701 120.448 117.701C119.776 117.701 119.158 117.581 118.594 117.341C118.03 117.089 117.538 116.741 117.118 116.297C116.698 115.853 116.368 115.331 116.128 114.731C115.9 114.131 115.786 113.477 115.786 112.769C115.786 112.109 115.9 111.485 116.128 110.897C116.356 110.297 116.674 109.775 117.082 109.331C117.49 108.887 117.976 108.539 118.54 108.287C119.104 108.023 119.728 107.891 120.412 107.891C121.564 107.891 122.518 108.293 123.274 109.097V108.179ZM134.887 110.555C134.287 110.243 133.699 110.087 133.123 110.087C132.823 110.087 132.577 110.147 132.385 110.267C132.205 110.387 132.115 110.549 132.115 110.753C132.115 110.861 132.127 110.951 132.151 111.023C132.187 111.083 132.253 111.143 132.349 111.203C132.457 111.263 132.607 111.317 132.799 111.365C133.003 111.413 133.267 111.473 133.591 111.545C134.491 111.725 135.163 112.049 135.607 112.517C136.051 112.973 136.273 113.561 136.273 114.281C136.273 114.821 136.165 115.307 135.949 115.739C135.733 116.171 135.433 116.537 135.049 116.837C134.665 117.125 134.203 117.347 133.663 117.503C133.123 117.671 132.529 117.755 131.881 117.755C130.633 117.755 129.403 117.401 128.191 116.693L129.379 114.389C130.291 115.013 131.155 115.325 131.971 115.325C132.271 115.325 132.517 115.259 132.709 115.127C132.901 114.995 132.997 114.827 132.997 114.623C132.997 114.503 132.979 114.407 132.943 114.335C132.919 114.251 132.859 114.179 132.763 114.119C132.667 114.047 132.523 113.987 132.331 113.939C132.151 113.879 131.911 113.819 131.611 113.759C130.603 113.555 129.895 113.255 129.487 112.859C129.091 112.451 128.893 111.893 128.893 111.185C128.893 110.669 128.989 110.207 129.181 109.799C129.373 109.379 129.649 109.025 130.009 108.737C130.369 108.449 130.801 108.227 131.305 108.071C131.821 107.915 132.391 107.837 133.015 107.837C134.035 107.837 135.025 108.035 135.985 108.431L134.887 110.555Z" fill="#282828"/>
</svg>
