<svg width="165" height="58" viewBox="0 0 165 58" fill="none" xmlns="http://www.w3.org/2000/svg">
<g clip-path="url(#clip0_2_68)">
<path d="M0.547852 25.8816V0.209961H7.73709C9.42811 0.209961 10.896 0.532439 12.1426 1.1774C13.3873 1.82235 14.3569 2.73604 15.0494 3.92038C15.742 5.10472 16.0883 6.48102 16.0883 8.0531V17.9693C16.0883 19.5875 15.742 20.983 15.0494 22.1539C14.3569 23.3267 13.3873 24.2404 12.1426 24.8968C10.896 25.5533 9.42811 25.8816 7.73709 25.8816H0.547852ZM4.35505 22.4706H7.73901C9.12415 22.4706 10.2284 22.0713 11.0518 21.2747C11.8733 20.4781 12.2849 19.3763 12.2849 17.9693V8.0531C12.2849 6.69408 11.8733 5.60956 11.0518 4.79952C10.2284 3.99141 9.12415 3.58639 7.73901 3.58639H4.35505V22.4706Z" fill="white"/>
<path d="M20.2841 25.8816L26.8404 0.209961H31.8442L38.4351 25.8816H34.5586L33.0081 19.3763H25.713L24.1624 25.8816H20.286H20.2841ZM26.4171 16.211H32.2674L30.5052 8.82666C30.1993 7.51372 29.9473 6.37736 29.7472 5.41569C29.5471 4.45401 29.4125 3.78602 29.3413 3.41171C29.2701 3.78602 29.1412 4.45593 28.9527 5.41569C28.7642 6.37736 28.5064 7.5022 28.1774 8.79211L26.4152 16.213L26.4171 16.211Z" fill="white"/>
<path d="M48.5851 25.8816V3.65549H41.7133V0.209961H59.3006V3.65549H52.3923V25.8796H48.5851V25.8816Z" fill="white"/>
<path d="M62.5769 25.8816L69.1313 0.209961H74.1351L80.726 25.8816H76.8496L75.299 19.3763H68.0039L66.4534 25.8816H62.5769ZM68.71 16.211H74.5602L72.798 8.82666C72.4922 7.51372 72.2401 6.37736 72.0401 5.41569C71.84 4.45401 71.7053 3.78602 71.6342 3.41171C71.563 3.78602 71.4341 4.45593 71.2455 5.41569C71.057 6.37736 70.7992 7.5022 70.4703 8.79211L68.7081 16.213L68.71 16.211Z" fill="white"/>
<path d="M84.2332 56.8587V53.4094H89.4178V34.6154H84.2332V31.166H98.5193V34.6154H93.2981V53.4094H98.5193V56.8587H84.2332Z" fill="white"/>
<path d="M112.628 57.2097C110.912 57.2097 109.423 56.916 108.167 56.3306C106.909 55.7451 105.939 54.912 105.256 53.8314C104.573 52.7526 104.233 51.4857 104.233 50.0307H108.042C108.042 51.1805 108.459 52.1076 109.294 52.8102C110.129 53.5146 111.253 53.8659 112.663 53.8659C114.073 53.8659 115.074 53.5146 115.872 52.8102C116.67 52.1057 117.07 51.1786 117.07 50.0307C117.07 49.0921 116.811 48.2763 116.295 47.5853C115.778 46.8942 115.072 46.4182 114.179 46.1591L110.757 45.1379C108.875 44.5985 107.417 43.6886 106.382 42.4102C105.347 41.1318 104.829 39.6116 104.829 37.8533C104.829 35.7188 105.535 34.0124 106.945 32.732C108.356 31.4536 110.262 30.8145 112.659 30.8145C115.056 30.8145 116.932 31.4421 118.356 32.6975C119.777 33.9529 120.489 35.6478 120.489 37.7842H116.68C116.68 36.6824 116.314 35.8014 115.585 35.1449C114.856 34.4884 113.869 34.1602 112.623 34.1602C111.376 34.1602 110.389 34.4826 109.66 35.1276C108.931 35.7726 108.567 36.6594 108.567 37.7842C108.567 38.6518 108.825 39.4024 109.343 40.0358C109.86 40.6692 110.578 41.1146 111.493 41.3737L115.02 42.4294C116.853 42.9688 118.282 43.8959 119.306 45.2089C120.329 46.5238 120.841 48.1074 120.841 49.9597C120.841 51.4147 120.501 52.6873 119.818 53.7776C119.135 54.8679 118.177 55.7125 116.943 56.3114C115.708 56.9103 114.267 57.2097 112.623 57.2097H112.628Z" fill="white"/>
<path d="M131.782 56.8587V34.6154H124.904V31.166H142.505V34.6154H135.591V56.8587H131.782Z" fill="white"/>
<path d="M145.785 56.8587L152.345 31.166H157.355L163.951 56.8587H160.071L158.519 50.3477H151.216L149.663 56.8587H145.783H145.785ZM151.922 47.1805H157.778L156.014 39.7904C155.708 38.4774 155.456 37.3392 155.256 36.3756C155.056 35.4139 154.921 34.744 154.85 34.3697C154.779 34.7459 154.65 35.4139 154.461 36.3756C154.273 37.3373 154.015 38.464 153.686 39.7539L151.922 47.1805Z" fill="white"/>
<path d="M80.7703 31.3057H0.547852V57.0272H80.7703V31.3057Z" fill="white"/>
</g>
<defs>
<clipPath id="clip0_2_68">
<rect width="164" height="57" fill="white" transform="translate(0.547852 0.209961)"/>
</clipPath>
</defs>
</svg>
