<svg width="934" height="3" viewBox="0 0 934 3" fill="none" xmlns="http://www.w3.org/2000/svg">
    <path d="M855.833 2.21888C857.94 2.30907 850.907 2.24995 855.577 2.38464C854.603 2.39375 853.623 2.40313 852.649 2.41223C852.402 2.36235 852.15 2.31259 851.902 2.2627C853.21 2.24801 854.519 2.23333 855.833 2.21864C855.833 2.21872 855.833 2.2188 855.833 2.21888ZM857.619 1.59416C856.42 1.73644 852.612 1.77437 856.726 1.90566C857.053 1.85684 857.388 1.80802 857.715 1.75919C859.143 1.79706 860.581 1.83492 862.009 1.87259C862.522 1.85397 863.035 1.83533 863.549 1.81692C864.203 1.90178 864.852 1.98686 865.506 2.07192C864.925 2.0595 864.336 2.04686 863.755 2.03444C861.46 2.10335 859.416 2.12219 856.299 2.13502C856.573 2.1551 856.847 2.175 857.121 2.19508C855.539 2.16093 853.958 2.12669 852.383 2.09255C853.751 2.05902 855.28 2.02174 856.548 1.9905C854.519 1.85746 850.941 1.9315 849.078 1.95925C846.541 1.99713 847.115 1.93387 845.232 1.96035C844.932 1.96449 844.898 2.01407 844.304 2.01491C841.307 2.01884 835.485 1.99256 838.89 1.87686C843.823 1.89176 848.03 1.79885 852.87 1.83279C851.59 1.69901 854.139 1.65348 857.619 1.59416ZM766.992 2.02016C768.487 1.95518 771.532 1.98141 773.594 2.02651C773.597 2.02651 773.599 2.02651 773.602 2.02651C774.056 2.03644 775.084 2.1228 773.602 2.11928C771.186 2.11325 770.018 1.97732 768.749 2.0696C768.182 2.05242 767.586 2.03713 766.992 2.02016ZM761.741 2.02822C760.26 1.99489 760.932 1.89247 762.787 1.92019C762.787 1.92011 762.787 1.92003 762.787 1.91995C763.562 1.93154 762.041 2.01249 764.818 1.93032C765.386 1.99425 765.944 2.05241 766.505 2.11427C765.825 2.11531 765.204 2.11698 764.491 2.11781C764.971 2.01273 763.223 2.06128 761.741 2.02822ZM836.385 1.93472C836.152 2.02925 837.128 2.02865 838.79 2.09425C837.221 2.09115 835.653 2.08784 834.091 2.08473C834.858 2.03466 835.618 1.98478 836.385 1.93472ZM873.236 1.94936C873.238 1.94936 873.241 1.94936 873.243 1.94936C873.757 1.93446 874.272 1.91951 874.78 1.90481C875.087 1.93855 875.39 1.97214 875.698 2.00588C877.513 1.97421 879.339 1.94255 881.154 1.91067C880.934 2.01373 877.674 1.99696 875.879 2.06899C873.209 2.03794 871.922 1.97812 871.749 1.89077C872.243 1.91022 872.735 1.92992 873.236 1.94936ZM436.557 1.5385C435.95 1.56705 435.35 1.59563 434.743 1.62418C435.55 1.63722 436.351 1.64716 437.165 1.66227C439.295 1.53809 439.495 1.64793 442.284 1.6403C450.835 1.6167 448.567 1.42384 456.29 1.70633C450.089 1.6929 452.472 1.82564 448.734 1.92788C447.959 1.85005 451.664 1.67453 449.154 1.6381C444.828 1.72047 440.669 1.79718 435.87 1.85037C436.011 1.86382 436.15 1.87732 436.29 1.89077C437.051 1.88229 437.806 1.87375 438.567 1.86526C437.746 1.90128 436.943 1.93698 436.109 1.97341C437.163 1.89166 434.475 1.93734 434.835 1.84341C434.995 1.8016 436.183 1.7436 436.884 1.70365C435.075 1.68192 433.221 1.66202 431.392 1.64091C432.339 1.6076 433.286 1.57425 434.227 1.54094C435.001 1.5399 435.769 1.53916 436.543 1.53813C436.547 1.53825 436.552 1.53837 436.557 1.5385ZM47.2549 1.97317C49.5513 1.87588 53.7243 1.85979 55.9206 1.96804C53.0301 1.9697 50.1454 1.97151 47.2549 1.97317ZM871.575 1.81876C871.835 1.83529 872.087 1.85165 872.346 1.86819C871.199 1.89882 870.044 1.92923 868.896 1.95986C868.676 1.91207 868.45 1.86427 868.224 1.81668C869.338 1.8173 870.46 1.81813 871.575 1.81876ZM798.13 1.87198C798.969 1.86908 799.044 1.87065 800.09 1.87747C800.088 1.87743 800.087 1.87739 800.086 1.87735C800.501 1.87989 803.97 1.90781 803.583 1.9446C801.861 1.94522 800.023 1.9446 798.261 1.9446C798.208 1.9204 798.196 1.89639 798.13 1.87198ZM818.403 1.89346C818.405 1.89354 818.408 1.89362 818.41 1.8937C819.037 1.89929 819.631 1.91067 820.278 1.91274C817.948 1.97066 817.58 1.86676 815.464 1.89614C813.349 1.92574 812.041 1.98307 810.246 1.84073C810.913 1.81941 811.632 1.78891 812.32 1.76407C815.324 1.82098 816.132 1.76742 818.542 1.71134C818.495 1.77218 818.45 1.83261 818.403 1.89346ZM474.628 1.82645C475.202 1.75608 475.842 1.82512 475.908 1.82596C475.907 1.82604 475.906 1.82612 475.905 1.8262C480.99 1.76103 475.243 1.86515 480.042 1.87613C479.328 1.89371 478.626 1.91228 477.918 1.93008C476.824 1.89614 475.695 1.85769 474.628 1.82645ZM639.842 1.83304C639.888 1.85353 639.945 1.87407 639.991 1.89456C637.107 1.8898 636.372 1.97046 633.976 1.897C635.931 1.87548 637.886 1.85411 639.842 1.83279C639.842 1.83287 639.842 1.83296 639.842 1.83304ZM783.594 1.72293C786.792 1.68381 789.157 1.66658 792.228 1.72867C792.23 1.72875 792.233 1.72883 792.235 1.72892C792.412 1.73274 791.556 1.77561 791.787 1.78641C792.42 1.78 793.075 1.77014 793.715 1.76248C793.802 1.79681 793.884 1.83114 793.971 1.86526C792.169 1.85553 790.366 1.84582 788.557 1.83609C788.824 1.85616 789.097 1.87607 789.364 1.89614C787.829 1.90649 786.3 1.9168 784.765 1.92715C785.298 1.87087 785.831 1.81458 786.358 1.75809C785.437 1.7463 784.515 1.73493 783.594 1.72293ZM591.832 1.6088C592.339 1.63116 591.4 1.66865 592.187 1.6879C592.975 1.70691 594.427 1.66519 594.087 1.72831C593.026 1.73679 591.913 1.74651 590.832 1.7554C594.31 1.86921 597.78 1.76623 597.833 1.90676C594.495 1.87034 591.751 1.88726 588.52 1.92617C588.653 1.81462 591.885 1.71817 589.85 1.61344C590.504 1.61199 591.191 1.60988 591.825 1.60905C591.827 1.60897 591.829 1.60889 591.832 1.6088ZM918.29 0.419899C920.266 0.428385 924.793 0.382858 927.29 0.447851C927.904 0.463868 929.95 0.671345 929.94 0.698693C929.88 0.790799 927.381 0.803336 930.057 0.863358C929.157 0.863981 928.283 0.867439 927.389 0.869095C927.55 0.930984 927.709 0.992707 927.862 1.05439C928.951 1.04507 930.04 1.03571 931.128 1.02619C931.181 1.04668 931.235 1.06722 931.288 1.08771C927.376 1.08813 929.686 1.16722 927.656 1.2409C929.525 1.27815 931.408 1.31522 933.27 1.35247C932.195 1.34792 930.927 1.34454 929.979 1.33916C929.852 1.4441 932.114 1.41908 932.501 1.43852C934.684 1.54843 923.571 1.49296 922.662 1.64567C924.437 1.66264 926.3 1.6792 928.115 1.69596C927.594 1.71479 927.067 1.73364 926.546 1.75247C922.428 1.64715 917.81 1.60983 913.011 1.54423C912.577 1.54858 912.143 1.55303 911.716 1.55717C911.842 1.60455 911.962 1.65175 912.089 1.69913C911.435 1.70472 910.773 1.71027 910.118 1.71585C912.047 1.5598 909.376 1.56193 906.152 1.46672C907.867 1.41188 909.983 1.44513 909.837 1.34295C903.95 1.42156 897.055 1.31046 891.328 1.39922C889.907 1.42116 889.911 1.55297 886.569 1.54081C886.682 1.52633 886.702 1.50017 886.775 1.48113C880.994 1.54426 877.486 1.58199 871.479 1.51762C871.826 1.565 872.167 1.61257 872.514 1.65995C873.789 1.63635 875.066 1.61238 876.334 1.58879C877.202 1.66702 875.92 1.70155 879.724 1.70072C882.842 1.7001 880.986 1.66555 881.834 1.64237C882.982 1.61072 883.989 1.67298 885.224 1.63761C886.179 1.6105 885.146 1.54595 887.636 1.5623C886.635 1.64592 885.613 1.73227 884.605 1.81692C883.998 1.79809 883.395 1.77896 882.787 1.75992C883.401 1.73757 884.005 1.71551 884.619 1.69315C882.457 1.7333 880.413 1.77117 878.177 1.81277C878.905 1.69189 876.593 1.73722 875.338 1.7515C873.383 1.77383 875.058 1.69064 873.777 1.7045C872.495 1.71858 871.113 1.81153 868.796 1.79166C870.038 1.73785 868.349 1.6896 868.675 1.63993C869.002 1.59027 871.452 1.57927 869.099 1.52507C864.573 1.56626 869.484 1.7554 866.427 1.78604C862.756 1.82288 861.882 1.51457 862.976 1.44829C863.838 1.39613 866.801 1.40662 867.669 1.35467C862.362 1.26091 862.316 1.446 861.408 1.48222C858.11 1.61406 860.325 1.26218 856.42 1.38946C856.494 1.32365 856.553 1.26447 856.627 1.20135C855.953 1.21336 855.506 1.22931 854.691 1.23883C857.092 1.36704 855.127 1.36155 854.119 1.36175C852.53 1.36216 854.984 1.4247 854.563 1.44084C853.428 1.48405 851.634 1.46443 852.735 1.52092C852.241 1.49463 851.705 1.46827 851.198 1.44219C849.342 1.47494 844.98 1.74959 849.131 1.69413C848.744 1.79617 847.401 1.74713 846.353 1.7316C845.305 1.71609 845.325 1.78108 844.404 1.76907C840.739 1.72105 843.136 1.60989 843.717 1.52275C838.877 1.58277 843.615 1.62248 836.641 1.66263C835.967 1.73363 839.19 1.80939 836.506 1.85037C836.012 1.72703 834.036 1.63843 830.185 1.59745C829.811 1.62581 829.438 1.65442 829.064 1.68278C826.962 1.56893 828.036 1.45055 824.144 1.59172C826.234 1.33196 824.797 1.49814 821.313 1.39238C820.605 1.37107 822.24 1.31717 821.252 1.28985C820.804 1.27753 819.717 1.31821 818.623 1.2868C818.089 1.27128 815.593 1.17112 813.864 1.21869C815.132 1.34453 811.847 1.45159 814.664 1.55571C809.457 1.53004 805.813 1.59046 811.647 1.41887C810.326 1.38079 809.003 1.34286 807.681 1.30499C806.76 1.335 805.831 1.36478 804.903 1.39458C804.763 1.29115 804.903 1.26214 801.274 1.28033C802.849 1.25592 804.417 1.2311 805.998 1.20648C806.052 1.18559 806.272 1.16389 806.219 1.14362C804.282 1.18334 798.828 1.20044 797.507 1.22796C796.185 1.25549 798.738 1.26303 798.357 1.28973C795.187 1.50991 795.438 1.34752 793.163 1.3853C791.828 1.40766 795.016 1.43193 794.302 1.44145C791.653 1.47635 790.425 1.35933 788.076 1.35784C788.911 1.42426 789.738 1.49172 790.552 1.55876C788.089 1.55524 785.343 1.55465 783.053 1.57597C782.155 1.58429 782.834 1.63369 782.687 1.637C781.959 1.65397 778.995 1.68086 778.681 1.68107C776.32 1.68146 776.252 1.61304 773.957 1.60929C774.858 1.6035 775.706 1.59828 776.586 1.59269C776.987 1.48176 777.395 1.37084 777.796 1.2597C775.547 1.25163 773.296 1.24372 771.04 1.23565C772.689 1.2727 774.344 1.30957 775.992 1.34661C773.415 1.43623 770.839 1.52606 768.262 1.61588C766.92 1.56083 765.584 1.50579 764.242 1.45073C760.598 1.46525 761.332 1.68874 759.603 1.49297C758.529 1.50952 757.455 1.52606 756.38 1.5424C756.534 1.51447 756.686 1.48648 756.839 1.45854C755.544 1.47572 754.25 1.49279 752.955 1.51018C754.316 1.6091 755.651 1.71321 756.999 1.80923C754.451 1.83073 754.402 1.74681 754.022 1.72586C753.014 1.67039 751.013 1.74522 750.212 1.69388C749.941 1.67626 752.439 1.62101 751.578 1.55729C751.41 1.54494 748.066 1.31072 745.933 1.3648C745.973 1.40723 746.137 1.45926 746.224 1.50542C743.355 1.53119 741.892 1.3097 742.272 1.24762C740.743 1.29108 738.509 1.29471 738.195 1.3626C737.414 1.36426 736.639 1.36583 735.858 1.36748C736.672 1.20214 733.414 1.23237 733.201 1.37456C734.542 1.37808 735.886 1.38179 737.228 1.3853C736.213 1.55958 740.29 1.66478 731.806 1.50334C730.184 1.41268 734.69 1.51569 733.368 1.4478C731.072 1.40829 728.916 1.44135 726.734 1.37823C724.017 1.29937 727.359 1.22352 721.031 1.32391C734.989 1.57539 719.117 1.49379 712.561 1.57182C710.759 1.32344 705.222 1.24476 697.599 1.31866C698.393 1.38779 700.792 1.35217 702.174 1.37493C703.555 1.39769 702.06 1.43871 703.781 1.47099C705.503 1.50327 709.16 1.54716 710.903 1.59599C709.427 1.63511 702.14 1.72761 706.958 1.61649C703.362 1.548 701.672 1.47761 697.215 1.46477C695.88 1.5726 695.978 1.63975 691.633 1.64286C694.203 1.49301 689.265 1.38887 690.352 1.23407C693.434 1.27012 691.712 1.42058 693.494 1.4926C693.676 1.4998 696.547 1.46208 697.215 1.46477C694.317 1.32961 693.316 1.2793 695.098 1.11847C693.049 1.13255 691.774 1.11236 691.587 1.18915C691.16 1.15583 690.73 1.12249 690.31 1.08918C689.643 1.09001 689.042 1.09309 688.336 1.09247C689.309 1.20831 687.422 1.137 686.08 1.18951C684.738 1.24209 686.538 1.33353 682.854 1.33477C684.082 1.36189 685.205 1.38515 686.393 1.41082C684.017 1.44062 681.633 1.47061 679.257 1.50041C680.926 1.57119 684.543 1.67632 684.444 1.76944C683.349 1.73428 679.6 1.79607 679.19 1.79861C677.601 1.80814 678.467 1.74941 678.346 1.74796C675.851 1.71942 673.794 1.73941 672.847 1.65043C670.971 1.69058 669.557 1.66769 667.568 1.66996C666.473 1.6712 666.686 1.73656 666.045 1.72416C661.786 1.64137 665.844 1.55691 657.628 1.71769C658.623 1.76322 659.604 1.8098 660.599 1.85574C659.671 1.87292 658.748 1.89019 657.821 1.90737C657.2 1.89909 656.584 1.89075 655.964 1.88247C655.977 1.78375 655.993 1.68482 656.006 1.5861C655.325 1.58072 654.642 1.57549 653.961 1.57011C655.129 1.56038 656.3 1.55067 657.468 1.54094C657.575 1.52357 657.675 1.50619 657.781 1.48882C656.046 1.46191 654.316 1.43476 652.581 1.40764C652.547 1.44198 652.514 1.47657 652.481 1.51091C648.569 1.4631 648.476 1.43402 644.758 1.52861C641.894 1.52757 639.562 1.67116 637.906 1.7316C637.312 1.71236 636.718 1.69287 636.117 1.67362C635.737 1.70218 635.352 1.73062 634.972 1.75919C634.217 1.71945 633.453 1.67971 632.699 1.64017C632.278 1.73037 632.06 1.75853 635.004 1.79019C633.996 1.90237 628.814 1.85289 626.704 1.81522C625.104 1.78663 626.88 1.69306 626.68 1.68168C626.011 1.64301 623.374 1.67637 622.82 1.66996C620.477 1.64326 618.835 1.64793 616.719 1.62724C616.307 1.62309 615.155 1.56379 615.058 1.56193C614.297 1.55179 612.418 1.52297 612.205 1.52214C601.186 1.47787 612.96 1.73515 602.714 1.70804C603.021 1.74197 603.303 1.77567 603.603 1.8096C602.829 1.81167 602.047 1.81363 601.273 1.8157C600.292 1.78735 601.479 1.73578 599.53 1.77738C599.657 1.73557 599.784 1.69374 599.918 1.65214C599.07 1.6747 598.253 1.69708 597.385 1.71964C596.023 1.57455 591.052 1.5416 591.405 1.37127C591.525 1.31331 595.05 1.25384 593.187 1.19196C591.674 1.17977 592.698 1.24899 592.081 1.25262C587.621 1.27787 587.881 1.18085 586.058 1.20672C585.771 1.24831 585.47 1.2907 585.176 1.3327C584.489 1.32049 583.799 1.30828 583.106 1.29608C582.945 1.32402 582.778 1.35199 582.618 1.37993C583.266 1.3818 583.995 1.38369 584.589 1.38555C583.76 1.49378 576.152 1.54239 579.054 1.45012C580.235 1.41266 582.399 1.42858 581.032 1.30071C578.996 1.31913 576.686 1.33796 574.543 1.35638C574.476 1.32885 574.414 1.30127 574.347 1.27374C571.46 1.29156 574.086 1.40163 574.081 1.46062C573.42 1.46227 572.753 1.46372 572.092 1.46538C571.812 1.43871 571.546 1.41079 571.252 1.38494C571.226 1.42739 570.856 1.52605 568.887 1.48943C567.621 1.46559 569.615 1.35849 567.201 1.37334C567.381 1.43956 568.253 1.52022 565.564 1.54155C565.297 1.47243 564.928 1.40911 564.721 1.33648C561.377 1.40288 559.856 1.29615 555.931 1.37334C553.441 1.42219 550.03 1.5956 548.421 1.32842C546.6 1.32139 547.178 1.38792 546.639 1.40288C544.096 1.47367 542.204 1.34698 541.73 1.33953C538.707 1.29177 537.352 1.33562 534.889 1.27581C535.023 1.32528 535.095 1.37211 535.202 1.42034C537.459 1.34624 538.601 1.34971 541.766 1.36565C540.704 1.37559 539.643 1.38575 538.582 1.39568C538.755 1.43582 538.927 1.47598 539.094 1.51591C548.88 1.35778 546.598 1.60762 538.393 1.66227C537.686 1.58798 536.953 1.51388 536.252 1.43938C531.512 1.55197 529.282 1.45423 523.922 1.43083C523.285 1.42816 520.964 1.47096 519.966 1.47307C519.983 1.47335 519.999 1.47364 520.016 1.47392C519.395 1.54408 520.236 1.57637 520.336 1.63908C519.796 1.64694 519.254 1.65477 518.714 1.66263C517.507 1.61483 517.931 1.57557 515.555 1.58696C515.875 1.63456 516.192 1.68217 516.512 1.72977C513.909 1.73143 512.205 1.67971 509.781 1.70206C510.189 1.68405 510.591 1.66599 510.998 1.64799C505.724 1.60204 509.921 1.32217 505.936 1.46147C505.682 1.43706 505.435 1.41241 505.182 1.38799C506.824 1.38199 508.466 1.37617 510.102 1.37017C510.135 1.33562 510.171 1.30121 510.198 1.26666C508.442 1.27701 506.678 1.28768 504.922 1.29803C506.204 1.27485 507.493 1.25163 508.775 1.22845C506.739 1.2119 504.703 1.19533 502.667 1.17877C504.829 1.30583 502.026 1.32137 502.553 1.44719C498.948 1.34246 496.116 1.2044 490.529 1.29278C489.421 1.31039 490.023 1.39831 486.879 1.29132C487.64 1.43122 483.702 1.49687 484.208 1.62992C485.302 1.62351 486.437 1.61947 487.498 1.61161C486.29 1.56546 486.09 1.43849 487.925 1.40081C490.268 1.35279 493.685 1.44079 493.546 1.29986C494.48 1.30648 495.349 1.31039 496.256 1.31597C495.883 1.35093 495.517 1.38611 495.15 1.42107C497.732 1.36626 499.355 1.38408 500.596 1.47221C497.52 1.4925 494.449 1.51256 491.372 1.53264C491.825 1.53863 492.285 1.54467 492.738 1.55046C490.408 1.6405 492.812 1.72578 488.466 1.74503C488.493 1.70385 488.514 1.66264 488.54 1.62126C486.958 1.73137 482.627 1.73077 484.008 1.85745C482.7 1.81854 482.434 1.79393 481.693 1.86221C478.241 1.76596 476.025 1.64425 477.253 1.49895C475.972 1.52233 474.689 1.54575 473.415 1.56913C474.155 1.60887 474.897 1.64841 475.638 1.68815C473.408 1.68566 471.162 1.68322 468.94 1.68094C468.726 1.56339 473.231 1.64528 471.931 1.5402C471.671 1.51911 470.471 1.56429 470.156 1.55241C466.832 1.42389 472.05 1.51674 471.07 1.41826C466.117 1.38784 470.081 1.22282 463.258 1.3615C463.078 1.32756 462.885 1.29294 462.718 1.25921C460.349 1.25717 460.542 1.33383 458.506 1.34832C457.231 1.35733 455.631 1.22272 454.223 1.31439C453.972 1.33129 456.34 1.49581 451.363 1.48857C447.5 1.48296 449.107 1.36669 447.019 1.32549C444.93 1.2843 440.15 1.44552 438.741 1.26275C439.836 1.28696 441.23 1.30002 442.444 1.31988C442.938 1.28428 443.419 1.24907 443.906 1.21368C441.129 1.25963 438.259 1.20548 436.39 1.29034C432.685 1.16056 428.541 1.28099 429.663 1.42754C430.882 1.40641 429.556 1.34251 431.249 1.38323C431.423 1.41738 431.606 1.45137 431.779 1.48552C428.896 1.48138 426.893 1.48234 428.208 1.37823C427.761 1.37574 427.318 1.37326 426.87 1.37078C426.79 1.44612 426.719 1.52174 426.639 1.59709C426.105 1.60557 425.569 1.61399 425.035 1.62248C424.441 1.60593 423.846 1.58919 423.245 1.57243C424.053 1.45321 425.429 1.44927 420.876 1.38262C420.863 1.42381 420.843 1.46484 420.83 1.50603C417.018 1.45366 416.918 1.35388 412.132 1.3576C415.804 1.21459 417.812 1.46809 417.799 1.18121C418.72 1.20005 419.649 1.21914 420.57 1.23797C420.71 1.19637 420.849 1.15471 420.983 1.1131C416.037 1.13505 407.82 1.40866 404.509 1.22723C404.108 1.24937 403.706 1.26862 403.299 1.29241C400.055 1.18292 398.654 1.42874 395.363 1.28717C395.023 1.27231 395.734 1.04135 391.45 1.04963C391.557 1.07965 391.612 1.13017 391.699 1.16803C390.771 1.14962 389.849 1.13034 388.928 1.11151C388.761 1.13924 388.586 1.16695 388.419 1.19488C390.001 1.20565 391.579 1.21659 393.161 1.22735C391.846 1.23687 390.523 1.2464 389.209 1.25592C390.924 1.30123 391.697 1.30171 390.664 1.37432C389.175 1.37867 387.684 1.38328 386.196 1.38762C386.042 1.40623 385.89 1.42505 385.737 1.44365C386.458 1.49912 387.186 1.55336 387.907 1.60966C384.028 1.56433 380.657 1.56187 377.679 1.45281C377.172 1.43439 378.966 1.36212 375.509 1.42729C375.456 1.38902 375.363 1.35794 375.303 1.32256C371.071 1.42978 369.68 1.39778 365.268 1.32037C368.125 1.3926 365.576 1.34562 364.848 1.38433C364.349 1.411 366.295 1.40706 366.075 1.43498C365.855 1.46272 363.326 1.57471 365.488 1.58818C370.789 1.35863 372.233 1.63307 379.042 1.52275C377.994 1.55235 376.938 1.58201 375.89 1.61161C376.383 1.63167 376.825 1.64987 377.359 1.67118C373.561 1.62627 375.408 1.65545 373.848 1.69083C372.286 1.72623 369.447 1.75629 367.544 1.76602C366.945 1.76908 367.577 1.7176 366.225 1.7128C365.303 1.70949 362.786 1.78581 362.205 1.69584C361.824 1.63726 365.869 1.47598 360.277 1.47636C359.224 1.41894 361.905 1.43678 361.963 1.42986C362.45 1.36155 359.013 1.3102 357.424 1.36236C357.295 1.36686 358.55 1.42008 357.185 1.44097C353.948 1.49085 352.078 1.42981 349.982 1.34722C349.755 1.44409 347.03 1.55978 343.639 1.52397C343.466 1.55169 343.3 1.57966 343.127 1.60758C343.653 1.59291 344.18 1.57844 344.706 1.56376C345.28 1.58115 345.889 1.59381 346.449 1.6143C343.039 1.63812 342.557 1.77162 340.921 1.82046C335.325 1.98732 338.717 1.63437 339.726 1.57353C340.454 1.59816 341.157 1.62565 341.878 1.65153C341.798 1.61779 341.717 1.58379 341.643 1.54985C333.266 1.55088 340.368 1.33084 336.115 1.26812C335.02 1.43411 331.897 1.45011 327.919 1.34478C327.479 1.34561 327.036 1.34582 326.596 1.34685C326.522 1.37106 326.523 1.40805 326.404 1.424C321.611 1.45215 320.757 1.19652 320.303 1.1723C318.287 1.0649 316.717 1.21351 316.123 1.21478C313.62 1.21996 312.892 1.15397 310.509 1.18231C307.947 1.21294 309.699 1.26357 308.919 1.30889C308.294 1.34488 306.272 1.35129 305.437 1.3886C305.768 1.35809 306.137 1.32817 306.468 1.29754C303.812 1.25594 301.641 1.2154 298.624 1.20526C295.22 1.42852 292.324 1.05191 293.498 1.35735C296.355 1.37826 297.953 1.41306 299.482 1.49089C297.606 1.50082 295.729 1.5105 293.854 1.52043C293.307 1.48691 292.918 1.45424 292.271 1.42009C290.869 1.49128 287.62 1.46073 286.344 1.48161C280.37 1.57952 282.218 1.70094 276.764 1.49687C280.695 1.47699 280.689 1.37787 284.587 1.39153C283.746 1.32074 281.765 1.33541 283.047 1.25055C279.276 1.27145 280.495 1.34721 279.027 1.41448C277.761 1.47247 275.212 1.47571 275.356 1.55107C275.095 1.50964 274.893 1.46953 274.634 1.42815C272.191 1.42856 269.748 1.42859 267.305 1.429C268.347 1.38575 269.388 1.34242 270.429 1.29937C269.642 1.28303 268.854 1.26676 268.067 1.25042C262.059 1.38496 251.698 1.13839 253.353 1.47636C250.456 1.48713 250.094 1.44474 248.519 1.38079C248.346 1.40645 248.177 1.42779 248.003 1.45635C246.135 1.42949 244.7 1.52582 243.051 1.50078C241.403 1.47593 240.994 1.38494 240.753 1.53789C239.685 1.49401 238.624 1.45757 237.562 1.4168C236.922 1.45154 236.282 1.48589 235.649 1.52043C234.647 1.50222 233.644 1.48408 232.643 1.46587C232.107 1.53888 228.171 1.50741 226.435 1.55644C224.787 1.47774 224.833 1.22994 220.957 1.27435C221.057 1.33581 221.155 1.39709 221.256 1.45854C220.368 1.44571 219.478 1.43292 218.584 1.42009C218.531 1.40003 218.484 1.37997 218.431 1.35992C218.885 1.36612 219.333 1.3723 219.786 1.37871C219.392 1.34477 219.007 1.31098 218.62 1.27703C217.265 1.32732 215.908 1.37762 214.546 1.42791C216.382 1.46598 218.218 1.50408 220.053 1.54216C217.75 1.58728 216.147 1.54227 214.144 1.59257C212.402 1.50772 213.046 1.45883 213.753 1.36675C213.106 1.37461 212.451 1.3822 211.804 1.39007C212.231 1.29797 211.136 1.2431 214.92 1.25055C214.66 1.22428 214.394 1.19924 214.141 1.17194C213.52 1.17608 213.118 1.15387 212.437 1.164C210.581 1.19174 209.158 1.35349 209.285 1.41021C209.353 1.43991 211.183 1.3831 211.11 1.4251C210.929 1.52751 206.731 1.48153 212.785 1.58439C210.776 1.64959 210.327 1.60042 208.111 1.58158C208.285 1.61571 208.453 1.64962 208.62 1.68375C207.592 1.66803 206.563 1.65236 205.536 1.63664C206.964 1.46133 199.387 1.39548 206.208 1.24212C204.192 1.23426 202.184 1.22635 200.175 1.21808C200.588 1.20007 201.002 1.18225 201.416 1.16425C202.324 1.17377 203.226 1.18313 204.134 1.19244C203.066 1.15954 201.997 1.12684 200.929 1.09394C198.406 1.13471 197.416 1.19743 196.262 1.27484C199.198 1.33133 198.239 1.25416 200.527 1.23883C200.447 1.28785 200.553 1.33294 200.353 1.38445C199.17 1.28291 195.313 1.35678 194.419 1.36175C191.697 1.37683 193.831 1.27706 192.011 1.27496C190.188 1.27289 188.039 1.33227 186.55 1.23333C186.577 1.28879 186.696 1.34616 186.803 1.39666C183.965 1.41487 184.531 1.34936 184.238 1.34087C179.552 1.20137 177.009 1.31915 171.648 1.33343C172.329 1.3506 173.017 1.36611 173.704 1.38225C169.66 1.49999 172.385 1.46394 175.896 1.50285C172.605 1.49105 170.72 1.59133 168.397 1.62113C166.074 1.65089 162.091 1.59939 160.635 1.55925C163.966 1.49467 167.559 1.53725 171.257 1.51945C170.837 1.46296 170.428 1.41515 169.994 1.35308C167.745 1.47165 166.441 1.39237 165.7 1.37664C163.525 1.3305 163.593 1.43227 162.278 1.32281C162.332 1.36046 162.371 1.39212 162.424 1.42729C157.932 1.41157 153.086 1.34499 150.162 1.48405C149.895 1.39361 149.693 1.30648 149.386 1.21417C147.484 1.28225 145.855 1.21253 144.253 1.22845C142.658 1.24439 143.265 1.31748 141.389 1.34563C141.042 1.35081 140.319 1.30506 139.465 1.3388C138.602 1.37272 135.42 1.6249 135.04 1.40459C133.431 1.40355 131.909 1.3955 130.333 1.39177C131.868 1.37936 133.404 1.36733 134.933 1.35491C133.625 1.30152 132.324 1.24828 131.016 1.19488C130.849 1.24249 130.682 1.29096 130.522 1.33794C126.997 1.3959 124.439 1.31806 120.881 1.33648C120.287 1.33958 121.689 1.43371 119.053 1.40972C116.416 1.38571 114.459 1.21003 109.967 1.27789C109.74 1.28141 108.41 1.41595 106.801 1.32281C106.435 1.3017 107.976 1.27046 107.136 1.24273C106.295 1.215 102.542 1.19219 102.248 1.12616C102.288 1.14955 102.522 1.17377 102.636 1.19757C101.995 1.20874 101.348 1.21993 100.701 1.23089C100.64 1.18971 100.576 1.14846 100.516 1.10749C96.8307 1.20332 94.9265 1.35964 89.4664 1.30792C91.0016 1.36773 92.5375 1.42778 94.066 1.48759C94.4866 1.44558 94.9079 1.40328 95.3218 1.36126C97.8381 1.37802 100.361 1.39466 102.878 1.41143C103.291 1.36361 103.698 1.31594 104.112 1.26812C104.779 1.27433 105.44 1.28035 106.108 1.28655C105.941 1.32112 105.773 1.3555 105.599 1.39007C106.92 1.38158 108.244 1.37292 109.558 1.36443C106.882 1.56846 102.083 1.34708 102.429 1.51774C101.836 1.49126 101.241 1.4646 100.647 1.43791C100.387 1.52067 99.1792 1.49685 97.0507 1.48381C97.538 1.52459 98.0761 1.56481 98.5234 1.606C96.454 1.54846 92.7831 1.55405 90.6403 1.5319C89.6992 1.52218 90.6392 1.46218 90.3593 1.45513C88.924 1.41828 86.1808 1.52297 85.6067 1.51469C82.1756 1.46542 79.9459 1.26695 76.201 1.39776C80.0662 1.43005 77.9634 1.41641 79.3386 1.48906C79.7691 1.51184 84.7625 1.55936 78.5098 1.53825C77.7767 1.53561 66.4312 1.39848 70.1607 1.29339C68.3249 1.32692 66.8875 1.36569 65.2053 1.4013C61.0931 1.12435 62.5163 1.38452 63.7112 1.52775C63.037 1.52837 62.3955 1.52983 61.7013 1.52983C63.1766 1.37935 55.6604 1.37001 53.1103 1.44597C52.2559 1.47122 54.645 1.51939 52.6692 1.54216C51.7283 1.5316 50.661 1.51794 49.6668 1.50615C51.1086 1.60135 48.2789 1.63804 48.3185 1.7349C46.5096 1.64859 45.126 1.46566 46.1201 1.36651C44.625 1.40665 43.1222 1.44675 41.6272 1.48711C42.3214 1.51008 43.0247 1.53285 43.7189 1.55583C38.8323 1.49497 32.5492 1.63345 31.5278 1.42998C30.8803 1.43143 30.2259 1.43268 29.5784 1.43413C29.3782 1.46849 29.1846 1.50292 28.9843 1.53727C26.0544 1.50748 23.1311 1.47748 20.2013 1.44768C22.8101 1.42636 23.4311 1.37745 26.1669 1.41716C25.1126 1.37765 24.0387 1.33791 23.0044 1.2984C18.8857 1.40478 18.3238 1.47471 12.1225 1.44304C11.8421 1.44159 7.15658 1.35237 6.99637 1.34368C6.26236 1.30394 7.37657 1.24621 7.04973 1.22613C6.14185 1.16983 0.625068 1.02847 0.731877 1.00715C2.08037 0.745521 20.6417 0.742053 25.6618 0.728599C77.731 0.589099 128.654 0.775733 180.396 0.743857C180.928 0.743364 180.696 0.704742 180.922 0.703088C182.331 0.693388 183.714 0.75358 184.234 0.756064C185.347 0.761182 184.734 0.705569 185.547 0.705529C193.945 0.70615 201.869 0.738852 210.274 0.729332C210.821 0.728711 210.262 0.773206 211.224 0.765341C211.72 0.761034 213.273 0.692769 214.393 0.691736C218.305 0.688219 221.591 0.710104 225.716 0.709069C227.973 0.708451 231.358 0.714254 233.881 0.713219C234.995 0.712779 236.156 0.681549 237.256 0.680506C238.819 0.679057 238.5 0.742366 238.74 0.746299C239.795 0.763474 239.941 0.693988 240.942 0.695642C242.804 0.698954 242.905 0.745347 245.268 0.741416C246.956 0.738518 250.822 0.701889 252.951 0.691125C257.931 0.744936 264.207 0.723573 268.853 0.705773C271.603 0.695221 271.858 0.760177 272.979 0.75997C276.931 0.758712 279.929 0.67575 283.641 0.67306C288.566 0.669555 292.931 0.724411 297.703 0.728355C298.477 0.728976 298.299 0.66946 299.058 0.667933C301.869 0.662345 305.463 0.651513 307.966 0.659999C310.756 0.669325 311.785 0.755713 314.515 0.73812C315.315 0.732897 315.55 0.657151 316.891 0.647426C319.034 0.632134 321.383 0.698928 322.878 0.706383C324.928 0.716319 323.145 0.639152 325.909 0.649502C326.023 0.649948 326.436 0.705109 327.03 0.702477C328.759 0.695026 328.587 0.651587 331.117 0.655727C331.36 0.656299 334.715 0.708858 335.048 0.709069C337.011 0.709897 340.962 0.728298 342.124 0.717125C346.276 0.677384 343.007 0.594418 346.538 0.774495C348.093 0.730419 349.635 0.685745 351.284 0.64291C350.184 0.682858 354.648 0.740503 354.962 0.736777C357.557 0.706758 356.011 0.636691 359.302 0.648281C354.956 0.810143 363.547 0.669143 365.463 0.665004C374.689 0.644932 383.074 0.685325 392.346 0.68429C395.45 0.683866 399.61 0.64965 402.894 0.650478C403.659 0.650527 403.081 0.688833 403.755 0.689661C404.427 0.690228 403.681 0.647226 404.448 0.649502C409.221 0.66441 412.961 0.745549 417.333 0.644131C417.546 0.658794 417.539 0.670381 417.892 0.686487C421.47 0.595629 428.361 0.717815 430.951 0.73458C435.002 0.760645 436.036 0.699231 438.98 0.711632C442.871 0.728191 448.714 0.84817 446.105 0.650112C448.775 0.643905 451.345 0.642191 454.041 0.660609C454.341 0.662697 454.135 0.713039 454.255 0.714074C455.016 0.721301 455.263 0.676228 455.777 0.674159C457.171 0.668591 454.897 0.72256 456.884 0.707482C457.932 0.69941 458.527 0.660098 461.437 0.659267C478.981 0.65492 498.026 0.669 516.01 0.675623C517.245 0.676037 516.432 0.627355 517.981 0.63046C523.362 0.641233 532.992 0.723162 537.632 0.711998C542.271 0.700822 541.224 0.629631 544.128 0.599821C544.688 0.594026 544.229 0.634599 544.736 0.63522C548.147 0.638949 552.214 0.702233 554.978 0.711754C556.805 0.718134 556.659 0.654305 557.927 0.649746C559.816 0.643122 561.76 0.707609 562.768 0.709679C567.507 0.718772 570.765 0.666831 575.19 0.693323C575.017 0.679275 574.903 0.666272 574.756 0.652431C579.996 0.654708 585.229 0.65699 590.469 0.659267C590.222 0.646434 589.983 0.63349 589.736 0.62045C595.884 0.627493 595.183 0.76658 594.642 0.472875C595.089 0.462528 595.563 0.450534 595.99 0.441016C595.817 0.592312 599.536 0.703032 604.268 0.741538C604.615 0.744436 606.944 0.596918 606.691 0.7712C607.298 0.728562 607.66 0.699171 608.174 0.661708C609.175 0.714473 610.19 0.766613 611.191 0.819171C611.731 0.811308 612.279 0.80372 612.82 0.795857C612.9 0.761704 612.839 0.726244 613.012 0.692712C615.522 0.687538 620.669 0.729759 622.653 0.725425C627.579 0.714455 632.595 0.622119 636.427 0.721886C638.293 0.711714 636.44 0.644683 639.216 0.653163C639.529 0.687101 639.824 0.719628 640.151 0.754599C642.42 0.602967 642.894 0.695209 646.003 0.72689C648.106 0.748415 649.482 0.711355 651.485 0.71859C651.992 0.720453 651.92 0.764959 652.268 0.76351C653.43 0.75892 656.747 0.697663 657.568 0.696008C665.004 0.679867 671.392 0.686737 678.474 0.703088C679.236 0.704744 678.249 0.660822 679.037 0.662684C680.304 0.665609 679.558 0.7331 680.292 0.736411C682.34 0.745268 682.356 0.674099 685.212 0.670375C694.618 0.65817 705.432 0.711632 715.258 0.716393C715.565 0.716393 715.546 0.674695 715.88 0.674281C718.056 0.672242 720.258 0.728607 722.233 0.727989C725.511 0.727161 727.975 0.668581 731.212 0.668788C737.541 0.668995 743.195 0.69899 749.703 0.700647C755.03 0.702095 759.657 0.696534 765.498 0.69674C791.012 0.697568 817.047 0.565211 842.735 0.635586C843.389 0.637448 843.123 0.674289 843.322 0.672694C845.218 0.656757 845.387 0.607047 846.061 0.711144C848.476 0.690628 849.239 0.612422 852.155 0.618009C853.709 0.620938 852.549 0.742153 855.179 0.679651C857.553 0.62315 854.933 0.556719 861.995 0.6246C862.182 0.626466 863.102 0.700351 864.57 0.681116C866.045 0.662073 864.338 0.609168 867.889 0.59323C876.227 0.555977 886.78 0.619843 896.472 0.600188C897.08 0.598946 902.93 0.559445 904.085 0.541231C906.32 0.505838 905.853 0.450932 908.756 0.437476C910.999 0.427127 912.85 0.489322 915.486 0.476903C915.794 0.475393 916.308 0.411418 918.29 0.419899ZM426.877 1.66251C426.33 1.72528 425.342 1.95632 422.032 1.88601C421.719 1.87939 423.412 1.7205 421.584 1.69523C423.373 1.67846 425.115 1.67303 426.877 1.66227C426.877 1.66235 426.877 1.66243 426.877 1.66251ZM932.636 1.89309C930.16 1.8815 927.675 1.87002 925.198 1.85843C926.907 1.83048 928.618 1.8026 930.321 1.77445C931.095 1.81397 931.862 1.85357 932.636 1.89309ZM624.335 1.78336C624.338 1.78336 624.34 1.78336 624.342 1.78336C621.739 1.81316 619.134 1.84302 616.53 1.87283C616.804 1.85089 617.078 1.82886 617.352 1.80691C619.408 1.77236 621.464 1.73784 623.513 1.70328C623.787 1.72998 624.062 1.75666 624.335 1.78336ZM644.904 1.55107C646.566 1.57715 646.159 1.62113 647.074 1.66398C647.074 1.6639 647.074 1.66381 647.074 1.66373C647.315 1.67489 648.439 1.68465 648.874 1.68632C648.714 1.65879 648.507 1.63161 648.333 1.60429C652.212 1.53764 659.797 1.77448 649.977 1.8699C650.123 1.83513 650.264 1.80054 650.411 1.76578C645.531 1.77551 640.091 1.7001 644.904 1.55107ZM387.64 1.76261C383.474 1.87645 382.139 1.90045 377.085 1.82242C377.799 1.79015 378.513 1.75789 379.227 1.72562C380.061 1.75853 380.89 1.79122 381.724 1.82413C381.726 1.82413 381.729 1.82413 381.731 1.82413C381.898 1.78956 382.065 1.75494 382.226 1.72037C384.028 1.73444 385.838 1.74853 387.64 1.76261ZM804.358 1.63334C805.52 1.86071 805.185 1.72855 801.868 1.77982C800.72 1.79762 801.839 1.8374 801.125 1.84402C797.268 1.8802 796.959 1.72787 797.82 1.6486C800.003 1.64322 802.208 1.63831 804.351 1.63334C804.354 1.63334 804.356 1.63334 804.358 1.63334ZM904.437 1.5861C904.44 1.5861 904.442 1.5861 904.444 1.5861C904.545 1.64156 902.99 1.65648 904.743 1.70902C903.409 1.70881 902.075 1.70837 900.734 1.70816C901.127 1.703 901.529 1.69807 901.922 1.69291C901.575 1.67386 901.227 1.65458 900.88 1.63554C900.406 1.69928 899.966 1.66223 898.564 1.64091C898.951 1.709 899.337 1.77715 899.724 1.84524C898.095 1.82496 896.461 1.80461 894.833 1.78433C894.812 1.76717 894.792 1.74998 894.772 1.73282C894.158 1.75475 893.55 1.77693 892.936 1.79886C892.77 1.77837 892.609 1.75807 892.442 1.73758C891.701 1.7531 890.959 1.76861 890.219 1.78433C889.993 1.73471 891.626 1.71326 888.732 1.72586C889.62 1.67495 890.505 1.6242 891.4 1.57328C895.745 1.57742 900.092 1.58175 904.437 1.5861ZM774.189 1.70328C778.975 1.69376 777.627 1.72973 776.519 1.84231C775.745 1.79596 774.963 1.74963 774.189 1.70328ZM527.6 1.60307C526.212 1.67986 524.817 1.75588 523.395 1.82998C520.565 1.87283 517.734 1.73287 519.863 1.67801C522.426 1.6122 525.104 1.68586 527.6 1.60307ZM463.134 1.63725C466.597 1.67285 463.339 1.7641 462.558 1.81729C461.6 1.7318 460.264 1.73935 458.118 1.7294C460.133 1.72386 462.561 1.6312 463.134 1.637C463.134 1.63708 463.134 1.63716 463.134 1.63725ZM583.33 1.68937C584.717 1.68707 586.098 1.66562 587.339 1.69169C586.964 1.76511 584.482 1.69831 586.257 1.80716C585.37 1.80902 584.481 1.81083 583.6 1.8129C584.16 1.7678 583.407 1.73409 583.333 1.68961C583.332 1.68953 583.331 1.68945 583.33 1.68937ZM727.815 1.78983C725.091 1.70289 724.575 1.74009 721.831 1.80032C721.445 1.72954 724.716 1.61098 726.766 1.58488C727.113 1.65318 727.461 1.72153 727.815 1.78983ZM83.5897 1.75357C84.2437 1.66335 89.0684 1.65159 91.4656 1.67826C91.1802 1.69164 90.8937 1.7052 90.6083 1.71878C88.2719 1.73038 85.9261 1.74198 83.5897 1.75357ZM457.097 1.7233C457.456 1.72594 457.797 1.72791 458.118 1.7294C457.761 1.73039 457.416 1.72885 457.097 1.7233ZM312.085 1.33172C313.226 1.24666 309.835 1.21808 313.953 1.2514C313.953 1.25132 313.953 1.25124 313.953 1.25116C316.677 1.2731 317.278 1.27895 319.801 1.28558C318.893 1.39485 313.774 1.43391 320.829 1.45647C320.922 1.45657 320.737 1.39155 321.864 1.40044C322.212 1.40321 323.326 1.45657 325.02 1.47209C325.567 1.47706 329.681 1.49352 324.074 1.49455C324.24 1.57072 323.939 1.64782 323.953 1.72171C321.764 1.74319 320.082 1.59404 317.766 1.5977C314.328 1.60349 312.579 1.75432 311.918 1.55644C314.809 1.50782 319.773 1.50665 320.42 1.62565C323.217 1.6271 324.02 1.5296 321.765 1.48137C312.105 1.54264 319.113 1.33665 310.655 1.41448C310.555 1.442 310.207 1.47161 310.26 1.49748C307.679 1.40064 311.678 1.36214 312.085 1.33172ZM332.284 1.54216C330.615 1.60032 328.952 1.65895 327.289 1.71732C327.289 1.62252 328.206 1.53746 330.836 1.48405C331.316 1.5035 331.804 1.52292 332.284 1.54216ZM191.897 1.56706C191.656 1.6186 191.016 1.66582 190.548 1.71488C190.041 1.67141 178.025 1.62971 184.138 1.58708C185.026 1.58087 190.441 1.672 191.897 1.56706ZM746.726 1.71219C745.311 1.67763 743.901 1.643 742.493 1.60844C744.661 1.58651 746.831 1.56401 748.999 1.54167C748.239 1.5985 747.486 1.65537 746.726 1.71219ZM504.563 1.51262C505.161 1.51455 503.175 1.58543 505.53 1.57426C503.775 1.61959 502.13 1.65796 500.415 1.7006C499.901 1.66707 499.382 1.63367 498.868 1.60014C498.467 1.62166 498.059 1.64306 497.658 1.66459C497.898 1.61574 498.112 1.56803 498.366 1.51835C501.256 1.62309 501.919 1.50434 504.563 1.51262ZM590.512 1.32159C591.032 1.42775 586.846 1.49088 590.964 1.50786C590.183 1.57761 588.927 1.61419 586.517 1.6204C586.13 1.59373 585.744 1.56725 585.357 1.54057C585.304 1.61195 584.684 1.63848 583.33 1.68937C583.328 1.68929 583.327 1.6892 583.326 1.68912C579.662 1.69429 579.881 1.67049 579 1.55314C582.879 1.61938 582.995 1.51216 585.638 1.44841C587.454 1.40457 589.824 1.42443 590.512 1.32159ZM204.7 1.56584C201.957 1.65545 204.418 1.73904 199.552 1.64384C199.866 1.62107 200.181 1.59849 200.495 1.57573C201.896 1.57221 203.298 1.56894 204.7 1.56584ZM604.048 1.68546C603.734 1.52113 601.152 1.3932 600.711 1.66056C603.228 1.715 601.998 1.56355 604.048 1.68546ZM464.315 1.37993C469.154 1.3876 468.239 1.57308 466.25 1.66581C465.943 1.63207 465.636 1.59827 465.336 1.56474C464.488 1.58006 463.64 1.5954 462.792 1.61051C463.3 1.53372 463.808 1.45672 464.315 1.37993ZM689.364 1.50493C685.665 1.62229 693.356 1.5702 690.772 1.64347C688.71 1.70204 685.991 1.58379 687.019 1.50969C687.734 1.50762 688.529 1.50617 689.356 1.50493C689.359 1.50493 689.361 1.50493 689.364 1.50493ZM667.963 1.5385C668.57 1.66389 667.694 1.62734 670.616 1.60478C671.451 1.59836 678.081 1.64545 675.298 1.54155C672.929 1.54155 670.425 1.53974 667.963 1.5385ZM408.376 1.5634C408.331 1.50879 413.437 1.38889 414.092 1.41887C414.092 1.41879 414.092 1.41871 414.092 1.41863C415.861 1.50039 410.475 1.512 412.812 1.62418C407.638 1.52547 406.091 1.76424 406.451 1.44963C409.499 1.43583 408.056 1.50068 408.376 1.5634ZM20.2404 1.49651C20.238 1.49651 20.2356 1.49651 20.2333 1.49651C20.5761 1.49907 23.4014 1.57921 23.0578 1.60697C19.6603 1.58317 20.2658 1.53042 17.1028 1.6171C16.9294 1.58919 16.7808 1.56211 16.5941 1.53398C17.8491 1.51742 18.5448 1.48388 20.2404 1.49651ZM178.905 1.45696C180.154 1.44267 182.432 1.50186 183.854 1.49834C179.328 1.7256 173.919 1.51368 178.905 1.45696ZM857.63 1.59391C857.626 1.59399 857.623 1.59408 857.619 1.59416C857.62 1.59403 857.622 1.59391 857.623 1.59379C857.625 1.59383 857.627 1.59387 857.63 1.59391ZM275.64 1.5933C275.479 1.57855 275.388 1.56573 275.356 1.55449C275.356 1.55343 275.356 1.55237 275.356 1.55131C275.443 1.56513 275.535 1.5791 275.64 1.5933ZM397.764 1.57988C395.637 1.50372 402.723 1.38265 405.014 1.41155C404.854 1.44631 404.829 1.47782 404.455 1.51774C402.606 1.42773 398.118 1.59271 397.764 1.57988ZM559.303 1.55192C553.702 1.54985 560.992 1.24916 561.292 1.48906C561.281 1.49371 559.448 1.55151 559.303 1.55192ZM441.932 1.54838C443.359 1.45735 440.491 1.43317 445.077 1.4489C445.344 1.47248 445.61 1.49612 445.877 1.5197C444.562 1.52922 443.247 1.53886 441.932 1.54838ZM522.613 1.15717C515.564 1.20788 508.822 1.29734 513.414 1.54838C513.947 1.54032 514.488 1.53252 515.021 1.52446C515.101 1.40198 517.07 1.46884 519.952 1.47282C520.363 1.4242 521.961 1.41296 522.261 1.37163C522.841 1.29176 521.004 1.2356 522.613 1.15717ZM820.217 1.3565C820.104 1.3774 819.993 1.39842 819.879 1.41912C818.764 1.44271 817.647 1.4662 816.532 1.48979C816.712 1.44967 816.892 1.40956 817.072 1.36944C818.12 1.36509 819.162 1.36072 820.21 1.35638C820.212 1.35642 820.215 1.35646 820.217 1.3565ZM339.153 1.28375C338.513 1.51385 340.751 1.47147 345.29 1.35515C343.247 1.33135 341.196 1.30755 339.153 1.28375ZM635.886 1.25042C636.033 1.3158 636.177 1.38097 636.331 1.44634C638.741 1.37824 638.293 1.30338 637.138 1.21686C636.718 1.22802 636.306 1.23926 635.886 1.25042ZM670.599 1.22259C669.599 1.20896 670.109 1.26174 670.004 1.26068C667.475 1.23294 667.118 1.20873 664.014 1.24847C663.634 1.26234 663.26 1.27692 662.879 1.29119C664.314 1.42817 665.356 1.35352 668.393 1.43401C667.846 1.38702 667.3 1.33997 666.753 1.29278C668.442 1.30271 670.123 1.31251 671.812 1.32244C672.012 1.30795 672.212 1.2936 672.413 1.27911C671.812 1.26049 671.192 1.23956 670.599 1.22259ZM833.109 1.41594C834.751 1.42132 836.401 1.42692 838.043 1.4323C838.103 1.39856 838.161 1.3646 838.221 1.33086C836.519 1.35921 834.811 1.38759 833.109 1.41594ZM305.437 1.3886C305.306 1.40057 305.18 1.41261 305.067 1.42485C305.078 1.40993 305.22 1.39828 305.437 1.3886ZM15.9075 1.31146C14.0454 1.28786 11.3619 1.30335 9.31932 1.2984C9.4799 1.38303 14.6715 1.35963 16.4945 1.41094C16.7874 1.39575 16.6947 1.32138 15.9075 1.31146ZM471.01 1.38738C471.477 1.34516 471.944 1.30314 472.404 1.26092C473.532 1.26548 474.663 1.27028 475.798 1.27484C475.832 1.24027 475.864 1.2054 475.898 1.17084C470.898 1.21575 472.051 1.11607 469.576 1.01777C470.057 1.1409 470.529 1.26404 471.01 1.38738ZM885.359 1.19672C881.748 1.2201 880.467 1.26379 882.503 1.36748C883.777 1.34369 885.059 1.31987 886.334 1.29608C886.007 1.26297 885.68 1.22982 885.359 1.19672ZM239.665 1.31048C236.643 1.34923 236.593 1.21006 233.639 1.28778C235.22 1.31344 236.802 1.33938 238.377 1.36504C238.803 1.3469 239.239 1.32862 239.665 1.31048ZM387.885 0.928296C386.61 0.879884 384.227 1.11001 380.643 0.940137C379.788 0.990837 379.253 1.03927 378.519 1.08893C378.092 1.03491 377.606 0.980197 377.199 0.926587C377.197 0.926587 377.194 0.926587 377.192 0.926587C373.941 0.944802 376.049 1.01256 375.975 1.06989C375.941 1.09366 373.528 1.05393 374.282 1.10566C375.584 1.19445 380.448 1.14339 380.461 1.25164C378.752 1.21627 375.415 1.24583 376.402 1.31805C377.484 1.39732 380.628 1.26447 382.631 1.33025C379.761 1.15724 385.689 1.21068 386.363 1.34356C389.841 1.24152 386.644 1.19989 383.079 1.20465C385.255 1.10282 382.052 1.15783 381.525 1.07319C383.769 1.02209 391.47 1.06468 387.885 0.928296ZM551.972 1.11591C549.568 1.12248 545.812 1.06427 544.167 1.15021C543.208 1.20028 546.973 1.23905 544.377 1.31768C546.719 1.31002 547.253 1.2793 546.853 1.21039C547.386 1.20211 547.927 1.19404 548.461 1.18597C548.707 1.19942 548.961 1.21269 549.208 1.22613C549.488 1.19778 549.77 1.16965 550.044 1.1413C550.61 1.14688 551.184 1.15247 551.751 1.15827C551.818 1.14401 551.931 1.1316 551.972 1.11591ZM152.89 1.31475C153.558 1.31392 154.219 1.3131 154.886 1.31207C154.813 1.29528 154.725 1.2778 154.641 1.26056C154.58 1.24692 154.52 1.23329 154.459 1.21966C154.846 1.26836 158.025 1.3493 159.365 1.2973C160.038 1.27121 158.506 1.17858 161.36 1.16242C159.292 1.16718 157.375 1.17982 155.366 1.18768C155.547 1.16015 155.72 1.13233 155.9 1.1048C155.899 1.10476 155.898 1.10472 155.896 1.10468C155.229 1.09847 154.554 1.09197 153.886 1.08576C153.553 1.16214 153.224 1.23837 152.89 1.31475ZM633.929 1.12116C631.653 1.17518 630.891 1.20324 631.966 1.29058C631.968 1.29062 631.971 1.29066 631.973 1.29071C632.82 1.25201 633.669 1.21332 634.516 1.17462C634.323 1.15682 634.13 1.13896 633.929 1.12116ZM285.829 1.10028C280.989 1.43207 291.888 1.22868 289.813 1.11566C289.719 1.11049 286.282 1.13692 285.829 1.10028ZM463.426 1.27789C464.754 1.2752 466.085 1.27277 467.421 1.27008C467.113 1.2293 466.799 1.18867 466.492 1.14789C465.471 1.19115 464.447 1.23463 463.426 1.27789ZM869.636 1.04609C868.238 0.955014 864.649 0.922018 862.895 1.02107C863.816 1.03266 864.737 1.04426 865.659 1.05585C863.917 1.06723 862.195 1.07976 860.44 1.09052C860.346 1.2174 862.369 1.14379 865.413 1.17877C865.884 1.18441 868.898 1.34191 869.938 1.2232C870.148 1.1988 866.942 1.18221 869.17 1.11127C868.196 1.10569 867.355 1.10693 866.434 1.10382C866.367 1.0736 866.301 1.04335 866.228 1.01313C867.366 1.02407 868.497 1.03515 869.636 1.04609ZM537.977 1.1258C534.675 1.11879 534.268 1.16949 533.58 1.25909C535.116 1.24895 536.651 1.23896 538.187 1.22882C538.114 1.19455 538.05 1.16027 537.977 1.1258ZM840.124 1.01704C838.316 1.00238 839.091 1.07531 838.363 1.08918C835.613 1.14133 833.737 1.08921 831.021 1.12189C831.201 1.10782 831.367 1.09466 831.54 1.081C831.538 1.081 831.535 1.081 831.533 1.081C818.67 1.01953 825.426 1.18493 833.123 1.15802C833.303 1.18514 833.477 1.21229 833.657 1.23919C837.101 1.1918 840.277 1.14619 840.124 1.01704ZM328.826 1.08893C328.679 1.07196 329.928 0.964101 327.585 1.0146C325.729 1.17208 328.772 1.09391 329.534 1.15448C328.9 1.16959 328.251 1.18429 327.624 1.1994C331.416 1.2439 331.969 1.20646 330.587 1.09137C330.488 1.08364 328.973 1.10585 328.826 1.08893ZM303.907 1.0113C303.386 1.24333 308.171 1.13899 307.998 1.06696C307.337 1.06409 306.824 1.10338 306.123 1.086C305.416 1.06862 305.235 1.01442 303.907 1.0113ZM441.004 1.06806C440.863 1.06703 439.455 0.969506 439.595 1.04584C441.337 1.22654 444.848 1.11023 444.234 1.04731C443.073 1.05042 442.298 1.07754 441.004 1.06782C441.004 1.0679 441.004 1.06798 441.004 1.06806ZM891.414 0.991404C891.347 0.98493 887.833 0.945733 887.38 0.982127C887.006 1.0231 886.82 1.06702 886.54 1.10944C888.476 1.07011 892.395 1.10007 891.407 0.991404C891.409 0.991404 891.411 0.991404 891.414 0.991404Z" fill="white"/>
</svg>    