<svg width="144" height="144" viewBox="0 0 144 144" fill="none" xmlns="http://www.w3.org/2000/svg">
<circle cx="72.2458" cy="71.9497" r="71.4629" fill="#EA9F67"/>
<path d="M57.3366 38.6156L47.0646 50.4236H47.2566C48.1526 49.8796 48.8886 49.5596 49.4646 49.4636C50.0406 49.3356 50.5526 49.2716 51.0006 49.2716C52.7606 49.2716 54.3766 49.6076 55.8486 50.2796C57.3206 50.9516 58.6006 51.8796 59.6886 53.0636C60.7766 54.2156 61.6246 55.5756 62.2326 57.1436C62.8406 58.7116 63.1446 60.3916 63.1446 62.1836C63.1446 64.1036 62.7926 65.8956 62.0886 67.5596C61.3846 69.1916 60.3606 70.6316 59.0166 71.8796C57.7046 73.0956 56.1046 74.0556 54.2166 74.7596C52.3286 75.4636 50.2006 75.8156 47.8326 75.8156C45.4326 75.8156 43.2886 75.4636 41.4006 74.7596C39.5126 74.0556 37.8966 73.0956 36.5526 71.8796C35.2406 70.6636 34.2326 69.2556 33.5286 67.6556C32.8246 66.0236 32.4726 64.2956 32.4726 62.4716C32.4726 60.4236 32.9206 58.2156 33.8166 55.8476C34.7446 53.4476 36.1526 51.0956 38.0406 48.7916L46.4406 38.6156H57.3366ZM41.7846 62.3756C41.7846 63.2076 41.9446 63.9916 42.2646 64.7276C42.5846 65.4316 43.0166 66.0556 43.5606 66.5996C44.1046 67.1436 44.7286 67.5756 45.4326 67.8956C46.1686 68.2156 46.9526 68.3756 47.7846 68.3756C48.6166 68.3756 49.3846 68.2156 50.0886 67.8956C50.8246 67.5756 51.4646 67.1436 52.0086 66.5996C52.5526 66.0556 52.9846 65.4316 53.3046 64.7276C53.6246 63.9916 53.7846 63.2076 53.7846 62.3756C53.7846 61.5436 53.6246 60.7756 53.3046 60.0716C52.9846 59.3356 52.5526 58.6956 52.0086 58.1516C51.4646 57.6076 50.8246 57.1756 50.0886 56.8556C49.3846 56.5356 48.6166 56.3756 47.7846 56.3756C46.9526 56.3756 46.1686 56.5356 45.4326 56.8556C44.7286 57.1756 44.1046 57.6076 43.5606 58.1516C43.0166 58.6956 42.5846 59.3356 42.2646 60.0716C41.9446 60.7756 41.7846 61.5436 41.7846 62.3756ZM74.3616 56.6636C74.3616 58.2636 74.5056 59.7196 74.7936 61.0316C75.0816 62.3436 75.4816 63.4796 75.9936 64.4396C76.5376 65.3996 77.1776 66.1516 77.9136 66.6956C78.6496 67.2076 79.4816 67.4636 80.4096 67.4636C81.3056 67.4636 82.1216 67.2076 82.8576 66.6956C83.6256 66.1516 84.2656 65.3996 84.7776 64.4396C85.2896 63.4796 85.6896 62.3436 85.9776 61.0316C86.2656 59.7196 86.4096 58.2636 86.4096 56.6636C86.4096 55.0956 86.2656 53.6556 85.9776 52.3436C85.6896 50.9996 85.2896 49.8636 84.7776 48.9356C84.2656 47.9756 83.6256 47.2396 82.8576 46.7276C82.1216 46.1836 81.3056 45.9116 80.4096 45.9116C79.4816 45.9116 78.6496 46.1836 77.9136 46.7276C77.1776 47.2396 76.5376 47.9756 75.9936 48.9356C75.4816 49.8636 75.0816 50.9996 74.7936 52.3436C74.5056 53.6556 74.3616 55.0956 74.3616 56.6636ZM65.0496 56.6636C65.0496 53.7836 65.4176 51.1756 66.1536 48.8396C66.9216 46.4716 67.9776 44.4556 69.3216 42.7916C70.6976 41.1276 72.3136 39.8476 74.1696 38.9516C76.0576 38.0236 78.1376 37.5596 80.4096 37.5596C82.6496 37.5596 84.7136 38.0236 86.6016 38.9516C88.4896 39.8476 90.1056 41.1276 91.4496 42.7916C92.7936 44.4556 93.8336 46.4716 94.5696 48.8396C95.3376 51.1756 95.7216 53.7836 95.7216 56.6636C95.7216 59.5436 95.3376 62.1676 94.5696 64.5356C93.8336 66.8716 92.7936 68.8876 91.4496 70.5836C90.1056 72.2476 88.4896 73.5436 86.6016 74.4716C84.7136 75.3676 82.6496 75.8156 80.4096 75.8156C78.1376 75.8156 76.0576 75.3676 74.1696 74.4716C72.3136 73.5436 70.6976 72.2476 69.3216 70.5836C67.9776 68.8876 66.9216 66.8716 66.1536 64.5356C65.4176 62.1676 65.0496 59.5436 65.0496 56.6636ZM31.3361 96.2916V102.808H28.0781V96.2916H26.9081V93.5736H28.0781V92.1876C28.0781 91.4196 28.1501 90.8076 28.2941 90.3516C28.4141 89.9676 28.6061 89.6136 28.8701 89.2896C29.1341 88.9536 29.4401 88.6656 29.7881 88.4256C30.1481 88.1856 30.5321 87.9996 30.9401 87.8676C31.3481 87.7356 31.7501 87.6696 32.1461 87.6696C32.4221 87.6696 32.6741 87.6996 32.9021 87.7596C33.1421 87.8196 33.3821 87.9036 33.6221 88.0116V90.8556C33.4061 90.7476 33.2021 90.6696 33.0101 90.6216C32.8301 90.5616 32.6381 90.5316 32.4341 90.5316C32.3021 90.5316 32.1641 90.5556 32.0201 90.6036C31.8881 90.6396 31.7621 90.7236 31.6421 90.8556C31.5221 90.9876 31.4381 91.1796 31.3901 91.4316C31.3541 91.6716 31.3361 92.0016 31.3361 92.4216V93.5736H33.6221V96.2916H31.3361ZM41.7827 96.8496C41.6747 96.3936 41.4527 96.0276 41.1167 95.7516C40.7807 95.4756 40.3727 95.3376 39.8927 95.3376C39.3887 95.3376 38.9747 95.4696 38.6507 95.7336C38.3387 95.9976 38.1407 96.3696 38.0567 96.8496H41.7827ZM37.9667 98.7396C37.9667 100.144 38.6267 100.846 39.9467 100.846C40.6547 100.846 41.1887 100.558 41.5487 99.9816H44.6987C44.0627 102.094 42.4727 103.15 39.9287 103.15C39.1487 103.15 38.4347 103.036 37.7867 102.808C37.1387 102.568 36.5807 102.232 36.1127 101.8C35.6567 101.368 35.3027 100.852 35.0507 100.252C34.7987 99.6516 34.6727 98.9796 34.6727 98.2356C34.6727 97.4676 34.7927 96.7776 35.0327 96.1656C35.2727 95.5416 35.6147 95.0136 36.0587 94.5816C36.5027 94.1496 37.0367 93.8196 37.6607 93.5916C38.2967 93.3516 39.0107 93.2316 39.8027 93.2316C40.5827 93.2316 41.2847 93.3516 41.9087 93.5916C42.5327 93.8196 43.0607 94.1556 43.4927 94.5996C43.9247 95.0436 44.2547 95.5896 44.4827 96.2376C44.7107 96.8736 44.8247 97.5936 44.8247 98.3976V98.7396H37.9667ZM52.807 95.9496C52.207 95.6376 51.619 95.4816 51.043 95.4816C50.743 95.4816 50.497 95.5416 50.305 95.6616C50.125 95.7816 50.035 95.9436 50.035 96.1476C50.035 96.2556 50.047 96.3456 50.071 96.4176C50.107 96.4776 50.173 96.5376 50.269 96.5976C50.377 96.6576 50.527 96.7116 50.719 96.7596C50.923 96.8076 51.187 96.8676 51.511 96.9396C52.411 97.1196 53.083 97.4436 53.527 97.9116C53.971 98.3676 54.193 98.9556 54.193 99.6756C54.193 100.216 54.085 100.702 53.869 101.134C53.653 101.566 53.353 101.932 52.969 102.232C52.585 102.52 52.123 102.742 51.583 102.898C51.043 103.066 50.449 103.15 49.801 103.15C48.553 103.15 47.323 102.796 46.111 102.088L47.299 99.7836C48.211 100.408 49.075 100.72 49.891 100.72C50.191 100.72 50.437 100.654 50.629 100.522C50.821 100.39 50.917 100.222 50.917 100.018C50.917 99.8976 50.899 99.8016 50.863 99.7296C50.839 99.6456 50.779 99.5736 50.683 99.5136C50.587 99.4416 50.443 99.3816 50.251 99.3336C50.071 99.2736 49.831 99.2136 49.531 99.1536C48.523 98.9496 47.815 98.6496 47.407 98.2536C47.011 97.8456 46.813 97.2876 46.813 96.5796C46.813 96.0636 46.909 95.6016 47.101 95.1936C47.293 94.7736 47.569 94.4196 47.929 94.1316C48.289 93.8436 48.721 93.6216 49.225 93.4656C49.741 93.3096 50.311 93.2316 50.935 93.2316C51.955 93.2316 52.945 93.4296 53.905 93.8256L52.807 95.9496ZM59.7273 96.2916V102.808H56.4693V96.2916H55.3893V93.5736H56.4693V90.8016H59.7273V93.5736H61.5813V96.2916H59.7273ZM66.3103 93.5736V102.808H63.0523V93.5736H66.3103ZM62.8363 90.0276C62.8363 89.7756 62.8843 89.5416 62.9803 89.3256C63.0763 89.0976 63.2083 88.8996 63.3763 88.7316C63.5443 88.5636 63.7363 88.4316 63.9523 88.3356C64.1803 88.2396 64.4203 88.1916 64.6723 88.1916C64.9243 88.1916 65.1583 88.2396 65.3743 88.3356C65.6023 88.4316 65.8003 88.5636 65.9683 88.7316C66.1363 88.8996 66.2683 89.0976 66.3643 89.3256C66.4603 89.5416 66.5083 89.7756 66.5083 90.0276C66.5083 90.2796 66.4603 90.5196 66.3643 90.7476C66.2683 90.9636 66.1363 91.1556 65.9683 91.3236C65.8003 91.4916 65.6023 91.6236 65.3743 91.7196C65.1583 91.8156 64.9243 91.8636 64.6723 91.8636C64.4203 91.8636 64.1803 91.8156 63.9523 91.7196C63.7363 91.6236 63.5443 91.4916 63.3763 91.3236C63.2083 91.1556 63.0763 90.9636 62.9803 90.7476C62.8843 90.5196 62.8363 90.2796 62.8363 90.0276ZM71.2684 93.5736L73.4644 98.3076L75.6964 93.5736H79.3324L74.5264 102.808H72.3484L67.5964 93.5736H71.2684ZM83.0216 98.1636C83.0216 98.4636 83.0756 98.7456 83.1836 99.0096C83.2916 99.2616 83.4356 99.4836 83.6156 99.6756C83.8076 99.8676 84.0296 100.018 84.2816 100.126C84.5456 100.234 84.8276 100.288 85.1276 100.288C85.4156 100.288 85.6856 100.234 85.9376 100.126C86.2016 100.018 86.4236 99.8676 86.6036 99.6756C86.7956 99.4836 86.9456 99.2616 87.0536 99.0096C87.1736 98.7576 87.2336 98.4876 87.2336 98.1996C87.2336 97.9116 87.1736 97.6416 87.0536 97.3896C86.9456 97.1256 86.7956 96.8976 86.6036 96.7056C86.4236 96.5136 86.2016 96.3636 85.9376 96.2556C85.6856 96.1476 85.4156 96.0936 85.1276 96.0936C84.8276 96.0936 84.5456 96.1476 84.2816 96.2556C84.0296 96.3636 83.8076 96.5136 83.6156 96.7056C83.4356 96.8976 83.2916 97.1196 83.1836 97.3716C83.0756 97.6116 83.0216 97.8756 83.0216 98.1636ZM87.1256 93.5736H90.4016V102.808H87.1256V101.782C86.4296 102.658 85.4876 103.096 84.2996 103.096C83.6276 103.096 83.0096 102.976 82.4456 102.736C81.8816 102.484 81.3896 102.136 80.9696 101.692C80.5496 101.248 80.2196 100.726 79.9796 100.126C79.7516 99.5256 79.6376 98.8716 79.6376 98.1636C79.6376 97.5036 79.7516 96.8796 79.9796 96.2916C80.2076 95.6916 80.5256 95.1696 80.9336 94.7256C81.3416 94.2816 81.8276 93.9336 82.3916 93.6816C82.9556 93.4176 83.5796 93.2856 84.2636 93.2856C85.4156 93.2856 86.3696 93.6876 87.1256 94.4916V93.5736ZM95.8767 87.8676V102.808H92.6187V87.8676H95.8767ZM104.853 96.8496C104.745 96.3936 104.523 96.0276 104.187 95.7516C103.851 95.4756 103.443 95.3376 102.963 95.3376C102.459 95.3376 102.045 95.4696 101.721 95.7336C101.409 95.9976 101.211 96.3696 101.127 96.8496H104.853ZM101.037 98.7396C101.037 100.144 101.697 100.846 103.017 100.846C103.725 100.846 104.259 100.558 104.619 99.9816H107.769C107.133 102.094 105.543 103.15 102.999 103.15C102.219 103.15 101.505 103.036 100.857 102.808C100.209 102.568 99.6511 102.232 99.1831 101.8C98.7271 101.368 98.3731 100.852 98.1211 100.252C97.8691 99.6516 97.7431 98.9796 97.7431 98.2356C97.7431 97.4676 97.8631 96.7776 98.1031 96.1656C98.3431 95.5416 98.6851 95.0136 99.1291 94.5816C99.5731 94.1496 100.107 93.8196 100.731 93.5916C101.367 93.3516 102.081 93.2316 102.873 93.2316C103.653 93.2316 104.355 93.3516 104.979 93.5916C105.603 93.8196 106.131 94.1556 106.563 94.5996C106.995 95.0436 107.325 95.5896 107.553 96.2376C107.781 96.8736 107.895 97.5936 107.895 98.3976V98.7396H101.037ZM115.877 95.9496C115.277 95.6376 114.689 95.4816 114.113 95.4816C113.813 95.4816 113.567 95.5416 113.375 95.6616C113.195 95.7816 113.105 95.9436 113.105 96.1476C113.105 96.2556 113.117 96.3456 113.141 96.4176C113.177 96.4776 113.243 96.5376 113.339 96.5976C113.447 96.6576 113.597 96.7116 113.789 96.7596C113.993 96.8076 114.257 96.8676 114.581 96.9396C115.481 97.1196 116.153 97.4436 116.597 97.9116C117.041 98.3676 117.263 98.9556 117.263 99.6756C117.263 100.216 117.155 100.702 116.939 101.134C116.723 101.566 116.423 101.932 116.039 102.232C115.655 102.52 115.193 102.742 114.653 102.898C114.113 103.066 113.519 103.15 112.871 103.15C111.623 103.15 110.393 102.796 109.181 102.088L110.369 99.7836C111.281 100.408 112.145 100.72 112.961 100.72C113.261 100.72 113.507 100.654 113.699 100.522C113.891 100.39 113.987 100.222 113.987 100.018C113.987 99.8976 113.969 99.8016 113.933 99.7296C113.909 99.6456 113.849 99.5736 113.753 99.5136C113.657 99.4416 113.513 99.3816 113.321 99.3336C113.141 99.2736 112.901 99.2136 112.601 99.1536C111.593 98.9496 110.885 98.6496 110.477 98.2536C110.081 97.8456 109.883 97.2876 109.883 96.5796C109.883 96.0636 109.979 95.6016 110.171 95.1936C110.363 94.7736 110.639 94.4196 110.999 94.1316C111.359 93.8436 111.791 93.6216 112.295 93.4656C112.811 93.3096 113.381 93.2316 114.005 93.2316C115.025 93.2316 116.015 93.4296 116.975 93.8256L115.877 95.9496Z" fill="#282828"/>
</svg>
