<svg width="249" height="77" viewBox="0 0 249 77" fill="none" xmlns="http://www.w3.org/2000/svg">
<g clip-path="url(#clip0_200_2)">
<path d="M46.1105 23.7347L39.6116 15.1316L41.3833 12.9339C42.5289 11.6517 43.1632 9.87868 43.1632 7.93745C43.1632 3.20021 40.0354 0.371094 34.7997 0.371094H26.0533L0.147949 25.9958V49.5083H7.45887V43.0973L11.5135 49.5083H20.4239L46.1105 23.7347ZM19.672 34.8692L25.3425 42.2673L22.469 45.1654L16.7793 37.7452L19.672 34.8692ZM20.0739 34.4693L22.6877 31.8691L28.339 39.2424L25.7417 41.862L20.0739 34.4693ZM23.0896 31.472L25.9166 28.6622L31.5488 36.0107L28.7409 38.8426L23.0896 31.4748V31.472ZM26.3213 28.2596L29.1483 25.4471L34.7614 32.768L31.9507 35.6026L26.3213 28.2596ZM29.553 25.0472L32.2378 22.3753L37.8317 29.6742L35.1605 32.3654L29.553 25.0472ZM32.6452 21.9727L35.5215 19.1133L41.0935 26.3818L38.2337 29.2661L32.6452 21.9727ZM38.2145 14.0424L35.8823 16.3586C36.03 15.763 36.1093 15.1316 36.1093 14.4808C36.1093 10.0993 33.1947 7.48248 28.3117 7.48248H21.2796L24.0247 4.76642H31.5734C36.1722 4.76642 38.8105 7.10747 38.8105 11.194C38.8105 12.2225 38.6055 13.1931 38.22 14.0424M28.3117 8.05326C32.9077 8.05326 35.5488 10.3971 35.5488 14.4808C35.5488 15.4818 35.3519 16.422 34.9883 17.252L32.8229 19.4056C32.9624 18.8237 33.0389 18.2144 33.0389 17.5829C33.0389 13.2014 30.1216 10.5846 25.2413 10.5846H18.1491L20.7055 8.05602H28.3144L28.3117 8.05326ZM25.2386 11.1526C29.8373 11.1526 32.473 13.4964 32.473 17.5829C32.473 18.5535 32.287 19.469 31.9425 20.2797L29.624 22.5849C29.7553 22.0224 29.8264 21.4323 29.8264 20.8229C29.8264 16.4413 26.9118 13.8273 22.0288 13.8273H14.871L17.575 11.1526H25.2413H25.2386ZM22.026 14.3926C26.6248 14.3926 29.2631 16.7364 29.2631 20.8229C29.2631 21.7632 29.0882 22.6483 28.7628 23.4397L26.4279 25.7614C26.5482 25.2182 26.6166 24.6474 26.6166 24.0573C26.6166 19.6785 23.6993 17.0618 18.819 17.0618H11.601L14.2995 14.3926H22.026ZM18.819 17.627C23.415 17.627 26.0533 19.9708 26.0533 24.0573C26.0533 24.9673 25.8866 25.8276 25.5831 26.6024L23.4368 28.7339C23.5517 28.2045 23.6145 27.653 23.6145 27.0822C23.6145 22.7007 20.7027 20.0839 15.8197 20.0839H8.54704L11.0268 17.6298H18.819V17.627ZM15.8224 20.6519C20.4157 20.6519 23.0568 22.9957 23.0568 27.0795C23.0568 27.9618 22.9037 28.7946 22.6166 29.5501L20.1805 31.9711C20.2872 31.4582 20.3473 30.9261 20.3473 30.3801C20.3473 26.0013 17.4328 23.3845 12.547 23.3845H5.21146L7.97288 20.6519H15.8224ZM16.1095 38.4097L16.3747 38.145L22.0643 45.568L19.59 48.0634L13.6051 40.1937C14.5976 39.8077 15.4424 39.1956 16.1068 38.4069M43.8713 23.5831L41.4954 25.9792L35.9261 18.7134L38.3622 16.2897L43.8713 23.5831ZM26.7396 2.07794H34.7969C37.2877 2.07794 41.4708 2.83623 41.4708 7.93745C41.4708 9.45403 40.9951 10.8272 40.0983 11.8282L39.1605 12.9918C39.2945 12.4183 39.3683 11.8171 39.3683 11.194C39.3683 6.81243 36.451 4.19839 31.568 4.19839H24.5933L26.7369 2.07794H26.7396ZM4.63457 23.9525H12.547C17.1457 23.9525 19.7841 26.2964 19.7841 30.3801C19.7841 31.2294 19.6419 32.0373 19.3767 32.7708L17.7062 34.4307C17.7335 34.144 17.7527 33.8517 17.7527 33.5539C17.7527 28.8194 14.6276 25.993 9.3946 25.993H2.57034L4.63457 23.9498V23.9525ZM12.4376 47.807L7.38232 39.8105L7.07884 39.4162H5.77195V47.807H1.83761V27.6971H9.3946C11.8853 27.6971 16.0658 28.4554 16.0658 33.5539C16.0658 34.8113 15.7267 36.1789 14.8956 37.2268L14.871 37.2516C14.2312 38.043 13.3098 38.6496 12.0303 38.8785L10.6632 39.1239L17.266 47.807H12.4404H12.4376Z" fill="white"/>
<path d="M11.9072 33.2533C11.9072 30.3359 8.45684 30.3359 7.15815 30.3359H5.77197V36.3388H7.15815C8.70017 36.3388 11.9072 36.3388 11.9072 33.2533ZM7.4589 34.6348V32.04C9.99886 32.0869 10.2176 32.6853 10.2176 33.2533C10.2176 34.279 9.58875 34.6072 7.4589 34.6348Z" fill="white"/>
<path d="M62.1459 25.85L56.2048 32.1921V25.7811H48.8938L23.8688 51.8773V65.1736C23.8688 67.7986 23.8688 71.0579 26.3377 73.4762C28.6835 75.8062 32.2105 76.1564 34.0998 76.1564C35.4039 76.1564 38.1134 76.1564 40.2131 74.0414L66.9442 47.198C69.4568 44.7246 69.4596 41.3577 69.4596 38.8981V25.7783H62.1459V25.8473V25.85ZM59.4911 43.1887C59.39 43.1942 59.2861 43.2025 59.174 43.2025C58.1323 43.2025 57.4488 42.9019 56.9977 42.3173V33.8245L59.5568 31.0946V41.3164C59.5568 41.9037 59.5485 42.5517 59.4911 43.1887ZM60.12 41.3136V30.4935L62.1459 28.3317V38.1233C62.1459 41.0517 61.7987 42.7227 60.0598 43.1115C60.109 42.4938 60.12 41.8734 60.12 41.3136ZM56.4372 34.4228V41.0103C56.2622 40.2437 56.2048 39.2842 56.2048 38.1233V34.671L56.4372 34.4228ZM51.4092 47.2035C53.7578 49.5335 57.282 49.8837 59.1767 49.8837C59.9614 49.8837 61.0331 49.8203 62.1787 49.5831L60.6969 51.0721C59.3654 51.6319 57.7687 51.938 56.0271 51.938C53.0989 51.938 50.5534 51.0832 49.0497 49.5886C47.0292 47.6088 46.8706 45.0224 46.8706 42.0967V30.4025L48.8966 28.2931V38.8981C48.8966 41.3577 48.8966 44.7301 51.4119 47.2007M40.3444 71.5046C39.3765 71.7362 38.3239 71.8631 37.233 71.8631C34.2993 71.8631 31.7594 71.0055 30.2556 69.511C28.2352 67.5312 28.0711 64.9447 28.0711 62.0191V49.9554L30.7068 47.2117V58.7957C30.7068 61.8564 30.8817 64.5614 33.0581 66.6929C35.2617 68.8823 38.6192 69.2077 40.4264 69.2077C41.2521 69.2077 42.0614 69.1387 42.8297 69.0091L40.3444 71.5074V71.5046ZM43.5597 68.2757C42.5836 68.5128 41.5228 68.6397 40.4264 68.6397C37.4982 68.6397 34.9583 67.7849 33.4545 66.2876C31.4368 64.3077 31.27 61.724 31.27 58.7957V46.6272L33.6732 44.1262V55.8039C33.6732 58.8646 33.8428 61.5751 36.0218 63.7039C38.22 65.8933 41.5829 66.2186 43.3902 66.2186C44.2213 66.2186 45.0361 66.1497 45.8098 66.0173L43.5597 68.2757ZM46.5371 65.2839C45.561 65.5238 44.492 65.6506 43.3902 65.6506C40.462 65.6506 37.9165 64.7931 36.4128 63.2985C34.3978 61.3215 34.2337 58.735 34.2337 55.8039V43.5444L36.894 40.7787V52.5584C36.894 55.6191 37.0717 58.3269 39.2426 60.4556C41.4435 62.6423 44.8064 62.9704 46.6136 62.9704C47.453 62.9704 48.2677 62.8959 49.0497 62.7636L46.5398 65.2839H46.5371ZM49.777 62.0329C48.7954 62.2728 47.7237 62.4051 46.6136 62.4051C43.68 62.4051 41.1373 61.5476 39.6363 60.053C37.6185 58.076 37.4572 55.4895 37.4572 52.5611V40.1941L40.0901 37.456V49.3322C40.0901 52.3929 40.2678 55.098 42.4414 57.235C44.6424 59.4188 48.0053 59.747 49.8125 59.747C50.6573 59.747 51.4803 59.6725 52.2677 59.5374L49.7797 62.0329H49.777ZM52.9922 58.8067C52.0052 59.0493 50.9253 59.1817 49.8098 59.1817C46.8843 59.1817 44.3416 58.3214 42.8351 56.8296C40.8146 54.8498 40.6533 52.2633 40.6533 49.3322V36.8659L43.1851 34.2326V46.2108C43.1851 49.2688 43.3628 51.9766 45.5364 54.1081C47.7373 56.2974 51.1002 56.6201 52.9075 56.6201C53.7578 56.6201 54.5889 56.5456 55.3791 56.4077L52.9922 58.8039V58.8067ZM56.1063 55.677C55.1139 55.9224 54.0284 56.0548 52.9047 56.0548C49.9711 56.0548 47.4338 55.1972 45.9274 53.7027C43.9069 51.7229 43.7428 49.1364 43.7428 46.208V33.648L46.2992 30.9871V42.094C46.2992 45.152 46.4769 47.857 48.6532 49.9885C50.8569 52.1751 54.2144 52.5005 56.0216 52.5005C56.9676 52.5005 58.3428 52.4095 59.7509 52.0097L56.1036 55.6743L56.1063 55.677ZM34.0998 74.4523C31.3219 74.4523 28.9214 73.6554 27.5188 72.2629C25.6979 70.4761 25.5558 68.2012 25.5558 65.1736V52.5694L27.5106 50.5344V62.0191C27.5106 65.0771 27.6856 67.7876 29.8647 69.9191C32.0656 72.103 35.4258 72.4339 37.233 72.4339C38.0505 72.4339 38.8516 72.3677 39.6144 72.2381L39.0156 72.8392C37.4162 74.455 35.2617 74.4551 34.0998 74.4551M63.8356 27.4852H67.7699V38.9009C67.7699 41.7989 67.6223 44.162 65.7522 45.9902C64.3578 47.3799 61.9573 48.1796 59.174 48.1796C56.3907 48.1796 53.9929 47.3827 52.5876 45.9875C50.7284 44.1565 50.5808 41.7962 50.5808 38.9009V27.4852H54.5151V38.1233C54.5151 40.4919 54.5151 44.9038 59.174 44.9038C63.8328 44.9038 63.8328 40.4892 63.8328 38.1233V27.4852H63.8356Z" fill="white"/>
<path d="M106.564 23.9805L106.534 0.939453H99.7176L74.2223 26.3656V49.7237H81.5359L106.561 23.9805H106.564ZM81.5387 27.0109L83.6767 24.8546V45.003L81.5387 47.1924V27.0109ZM87.067 21.4354L89.5222 18.9592V39.0139L87.067 41.5287V21.4354ZM86.5038 42.1077L84.24 44.4267V24.2865L86.5038 22.0034V42.105V42.1077ZM90.0881 18.3856L92.7238 15.7275V35.7326L90.0881 38.4321V18.3856ZM93.2898 15.1595L95.7176 12.7109V32.6691L93.2898 35.1563V15.1595ZM96.2808 12.1428L99.1735 9.2255V29.1258L96.2808 32.0873V12.1428ZM99.7394 8.65471L102.104 6.26679V26.123L99.7394 28.5467V8.65471ZM98.9958 7.79716H95.2309L97.6315 5.40923H101.366L98.9985 7.79716H98.9958ZM98.4326 8.36518L95.5399 11.2825H91.7259L94.6568 8.36518H98.4326ZM94.9794 11.8478L92.5461 14.3019H88.691L91.1572 11.8478H94.9794ZM91.9856 14.8672L89.473 17.4012H85.5742L88.1223 14.8672H91.9856ZM88.907 17.972L86.4491 20.451H82.512L85.0028 17.972H88.907ZM85.8886 21.0162L83.6221 23.3021H79.6467L81.9461 21.0162H85.8913H85.8886ZM102.668 25.5467V5.70152L104.852 3.5011L104.877 23.2883L102.668 25.5494V25.5467ZM100.412 2.64078H104.108L101.929 4.83844H98.2029L100.415 2.64078H100.412ZM79.0725 23.8702H83.0588L80.7403 26.2057H76.724L79.0725 23.8702ZM79.849 48.0224H75.9147V27.9098H79.849V48.0224Z" fill="white"/>
<path d="M125.749 37.2433C125.749 33.0162 122.996 30.2891 118.736 30.2891H116.573V44.2002H118.676C123.042 44.2002 125.749 41.5338 125.749 37.2433ZM118.263 42.4934V35.3076C120.218 36.1927 121.322 38.0595 121.325 40.566C121.322 41.0899 121.27 41.5807 121.18 42.0412C120.253 42.4107 119.302 42.4934 118.676 42.4934H118.263ZM121.803 41.7406C121.853 41.3656 121.883 40.9741 121.883 40.566C121.883 37.7176 120.57 35.6219 118.26 34.6927V31.9904H118.733C122.066 31.9904 124.056 33.9537 124.056 37.2405C124.056 39.7277 123.02 41.043 121.801 41.7406" fill="white"/>
<path d="M119.767 25.4834H111.015L86.1484 51.0033V74.014H94.9713C98.2576 74.014 101.426 72.6408 103.644 70.2722L128.185 45.6098L128.13 45.5547C130.271 43.4259 131.6 40.4865 131.6 37.2465C131.6 30.7639 126.293 25.4862 119.764 25.4862M112.642 27.1875H119.764C125.358 27.1875 129.913 31.6986 129.913 37.2438C129.913 42.789 125.361 47.2973 119.764 47.2973H112.642V27.1847V27.1875ZM121.448 49.9693C119.925 50.7607 118.216 51.1908 116.469 51.1908H109.97L112.141 48.9987H119.767C120.816 48.9987 121.839 48.8608 122.81 48.6016L121.451 49.9665L121.448 49.9693ZM102.747 68.7639C101.262 69.5056 99.6028 69.9082 97.9131 69.9082H91.4115L94.233 67.0598H101.301C102.605 67.0598 103.89 66.8309 105.101 66.4008L102.747 68.7639ZM105.76 53.03V33.1959L108.212 30.6618V50.5539L105.76 53.03ZM105.199 53.5953L102.597 56.2176V36.4579L105.199 33.7722V53.5953ZM102.039 56.7829L99.4852 59.3555V39.6703L102.039 37.037V56.7856V56.7829ZM98.9247 59.9236L96.4148 62.4549V42.8414L98.9247 40.2521V59.9263V59.9236ZM95.8544 63.0202L93.6042 65.2895V45.7422L95.8544 43.4204V63.0202ZM93.0437 65.8548L90.2194 68.7032V49.2386L93.0437 46.3212V65.8548ZM106.162 65.3309C104.669 66.0836 103.004 66.489 101.301 66.489H94.7963L97.0409 64.2251H104.111C105.421 64.2251 106.709 63.9935 107.923 63.5606L106.162 65.3281V65.3309ZM108.992 62.4907C107.493 63.2463 105.82 63.6544 104.111 63.6544H97.6096L100.114 61.1286H107.182C108.497 61.1286 109.793 60.8942 111.012 60.4585L108.992 62.4907ZM112.084 59.3831C110.58 60.1497 108.899 60.5633 107.182 60.5633H100.677L103.228 57.9906H110.293C111.616 57.9906 112.92 57.7562 114.145 57.3151L112.087 59.3831H112.084ZM115.223 56.2286C113.713 57.0035 112.021 57.4226 110.29 57.4226H103.789L106.389 54.8003H113.454C114.782 54.8003 116.095 54.5631 117.322 54.1164L115.223 56.2259V56.2286ZM118.41 53.0245C116.89 53.8076 115.192 54.2323 113.454 54.2323H106.952L109.407 51.7589H116.472C117.809 51.7589 119.124 51.519 120.357 51.0667L118.413 53.0217L118.41 53.0245ZM110.952 27.8327V47.7909L108.776 49.9886V30.08L110.952 27.8327ZM89.6535 49.8204V69.274L87.838 71.1049V51.6954L89.6535 49.8204ZM89.0274 72.3099L90.8455 70.4762H97.9131C99.1899 70.4762 100.448 70.2556 101.634 69.8448C99.7942 71.422 97.4237 72.3099 94.9713 72.3099H89.0274Z" fill="white"/>
<path d="M148.182 30.7695C144.412 30.7695 141.229 33.7972 141.229 37.3818C141.229 41.5097 144.283 44.7414 148.182 44.7414C152.081 44.7414 155.14 41.5069 155.14 37.3818C155.14 33.7972 151.952 30.7695 148.182 30.7695ZM153.401 36.789C151.386 36.2899 149.781 34.7126 149.191 32.5729C151.348 33.0003 153.111 34.743 153.401 36.789ZM148.597 32.4929C149.202 35.016 151.08 36.8689 153.45 37.3791C153.45 38.3745 153.224 39.2982 152.822 40.1006C152.392 40.2027 151.949 40.2578 151.498 40.2578C148.228 40.2578 145.675 37.5252 145.675 34.0343C145.675 33.7034 145.713 33.3781 145.779 33.0527C146.509 32.6832 147.329 32.4681 148.182 32.4681C148.321 32.4681 148.458 32.4791 148.597 32.4902M148.182 43.0401C145.226 43.0401 142.919 40.5556 142.919 37.3791C142.919 35.8018 143.818 34.3431 145.147 33.4304C145.122 33.6317 145.112 33.833 145.112 34.0343C145.112 37.8423 147.914 40.8258 151.501 40.8258C151.815 40.8258 152.127 40.7955 152.433 40.7514C151.482 42.1439 149.948 43.0373 148.185 43.0373" fill="white"/>
<path d="M156.381 47.4817L156.409 47.4541C157.079 46.9136 157.686 46.3015 158.224 45.6287L181.677 22.0555C184.4 19.6814 185.898 16.1905 185.898 12.2281C185.898 5.56889 180.149 0.15332 173.092 0.15332C169.562 0.15332 166.145 1.54857 163.711 3.98613L139.777 28.2432C139.088 28.8084 138.459 29.4426 137.913 30.1347L137.806 30.2395L137.82 30.2533C136.28 32.2442 135.367 34.6955 135.367 37.3426C135.367 44.807 140.759 50.2253 148.179 50.2253C151.381 50.2253 154.202 49.2161 156.376 47.4706L156.381 47.4817ZM169.833 4.57346C176.277 4.57346 181.518 9.48167 181.518 15.5149C181.518 17.5223 181.1 19.3918 180.307 21.0297L178.858 22.4884C179.337 21.1125 179.588 19.6152 179.588 18.0352C179.588 11.6931 174.093 6.53123 167.337 6.53123C165.759 6.53123 164.206 6.82352 162.757 7.37224L164.149 5.9632C165.877 5.06704 167.834 4.57622 169.833 4.57622M161.669 8.46694C163.394 7.57629 165.344 7.09099 167.334 7.09099C173.778 7.09099 179.02 11.9964 179.02 18.0297C179.02 20.0316 178.604 21.8983 177.814 23.5307L175.359 25.9986C175.832 24.6254 176.08 23.1337 176.08 21.5619C176.08 15.2171 170.585 10.0552 163.834 10.0552C162.265 10.0552 160.72 10.3475 159.279 10.888L161.669 8.46694ZM158.2 11.9854C159.917 11.103 161.855 10.6232 163.834 10.6232C170.279 10.6232 175.517 15.5315 175.517 21.5647C175.517 23.5555 175.104 25.4113 174.325 27.0409L172.255 29.12C172.726 27.7523 172.974 26.2633 172.974 24.6971C172.974 18.3495 167.482 13.1904 160.731 13.1904C159.17 13.1904 157.634 13.4772 156.201 14.0121L158.2 11.9882V11.9854ZM155.129 15.0985C156.838 14.2272 158.765 13.7557 160.731 13.7557C167.173 13.7557 172.414 18.6639 172.414 24.6971C172.414 26.6797 172.007 28.5299 171.23 30.154L169.007 32.3876C169.472 31.0254 169.718 29.5447 169.718 27.984C169.718 21.6364 164.223 16.4772 157.472 16.4772C155.919 16.4772 154.394 16.7613 152.969 17.2907L155.129 15.1013V15.0985ZM151.906 18.3688C153.606 17.5085 155.523 17.0398 157.475 17.0398C163.916 17.0398 169.158 21.9507 169.158 27.9812C169.158 29.9555 168.75 31.7975 167.982 33.4161L166.314 35.0926C166.776 33.7332 167.022 32.258 167.022 30.7C167.022 24.3552 161.527 19.1933 154.776 19.1933C153.234 19.1933 151.714 19.4718 150.295 19.9957L151.906 18.3661V18.3688ZM149.232 21.0739C150.924 20.2246 152.83 19.7613 154.774 19.7613C161.212 19.7613 166.454 24.6695 166.454 30.7C166.454 32.6688 166.049 34.5053 165.289 36.1239L163.042 38.3822C163.504 37.0228 163.747 35.5448 163.747 34.0062C163.747 27.6586 158.249 22.4967 151.498 22.4967C149.975 22.4967 148.458 22.7752 147.039 23.2991L149.232 21.0766V21.0739ZM184.209 12.2308C184.209 15.275 183.208 17.9883 181.338 20.0178C181.827 18.628 182.084 17.1115 182.084 15.5149C182.084 9.17008 176.586 4.00819 169.833 4.00819C168.261 4.00819 166.713 4.30048 165.273 4.84093C167.361 2.94107 170.18 1.85741 173.092 1.85741C178.437 1.85741 184.209 5.82258 184.209 12.2308ZM145.973 24.38C147.671 23.5307 149.582 23.062 151.501 23.062C157.943 23.062 163.186 27.9729 163.186 34.0034C163.186 35.9584 162.774 37.8004 162.008 39.4217L160.562 40.8749C160.843 39.7664 160.994 38.5862 160.994 37.3482C160.994 30.689 155.247 25.2734 148.185 25.2734C146.949 25.2734 145.751 25.4444 144.619 25.7532L145.973 24.38ZM148.182 48.5322C141.631 48.5322 137.06 43.9356 137.06 37.3509C137.06 34.9988 137.839 32.9776 139.088 31.359L140.857 29.564C142.938 27.8985 145.606 26.9775 148.182 26.9775C153.53 26.9775 159.304 30.9454 159.304 37.3509C159.304 40.0752 158.519 42.4604 157.136 44.3189L155.189 46.2739L155.2 46.2849C153.341 47.716 150.935 48.5322 148.182 48.5322Z" fill="white"/>
<path d="M189.439 31.4556C190.557 31.4556 191.618 31.6735 192.594 32.1009L193.166 32.3518L197.141 27.6532L196.252 27.143C193.712 25.6844 191.293 25.0088 188.633 25.0088C185.972 25.0088 183.845 25.9711 182.369 27.5925L157.275 52.8918C155.99 54.345 155.304 56.2531 155.304 58.4177C155.304 61.5336 156.575 63.6016 159.181 64.7046L154.467 69.486L153.207 70.6248C156.647 74.4328 160.193 74.9236 162.891 74.9236C165.59 74.9236 167.875 74.1212 169.628 72.6184L194.615 47.4156C196.285 45.9679 197.133 43.7813 197.133 40.9081C197.133 36.419 193.74 34.8886 191.192 34.1303L189.762 33.6974C188.805 33.3831 187.867 33.0246 187.867 32.429C187.867 31.8334 188.775 31.4556 189.431 31.4556M186.798 40.1636L186.97 40.2132C187.886 40.4752 189.598 40.9549 189.598 41.8291C189.598 43.1443 187.908 43.1802 187.714 43.1802C186.59 43.1802 178.208 41.8235 178.38 36.2784C178.41 35.294 178.544 34.3702 178.858 33.5375L180.411 31.9685C180.362 32.3628 180.326 32.7654 180.326 33.1818C180.326 37.9356 183.009 39.0771 186.795 40.1636M170.109 69.7369C168.934 70.236 167.586 70.5035 166.15 70.5035C162.847 70.5035 160.332 69.6238 158.487 67.8315L161.084 65.1954C163.039 67.1063 165.688 68.0411 169.158 68.0411C170.229 68.0411 171.255 67.8922 172.206 67.6192L170.109 69.7341V69.7369ZM173.111 66.7065C171.938 67.2056 170.593 67.4703 169.158 67.4703C165.847 67.4703 163.326 66.5907 161.48 64.7928L163.982 62.256C165.937 64.1724 168.592 65.1099 172.064 65.1099C173.139 65.1099 174.161 64.961 175.115 64.6881L173.114 66.7065H173.111ZM160.165 52.3927L162.336 50.2006C162.202 50.8072 162.128 51.4414 162.128 52.1032C162.128 55.5141 163.586 56.8846 165.97 57.8166L163.411 60.4113C161.048 59.5344 159.684 58.3294 159.684 55.1364C159.684 54.1492 159.848 53.2255 160.163 52.3927M178.645 44.956C176.324 44.0874 174.984 42.9017 174.984 39.7031C174.984 38.7159 175.148 37.7977 175.462 36.965L178.033 34.373C177.901 34.9769 177.852 35.6138 177.825 36.2756C177.71 38.9586 179.375 40.8447 181.549 41.9393L178.648 44.9587L178.645 44.956ZM178.213 45.3999L175.725 47.9257C173.338 47.0323 172.05 45.7997 172.05 42.6728C172.05 41.6829 172.217 40.7592 172.532 39.9264L174.637 37.8032C174.503 38.4098 174.426 39.0441 174.426 39.7086C174.426 43.0919 175.922 44.49 178.216 45.4054M175.288 48.3669L172.46 51.2346C170.065 50.3412 168.772 49.1224 168.772 45.9735C168.772 44.9863 168.939 44.0626 169.253 43.2271L171.695 40.7647C171.561 41.3713 171.487 42.0083 171.487 42.6728C171.487 46.0038 172.865 47.4073 175.29 48.3696M172.026 51.673L169.3 54.4415C166.951 53.5646 165.598 52.3596 165.598 49.1721C165.598 48.1849 165.765 47.2612 166.076 46.4284L168.42 44.0653C168.286 44.672 168.212 45.3062 168.212 45.9735C168.212 49.3237 169.595 50.7162 172.026 51.6758M168.865 54.8799L166.407 57.3754C164.05 56.5013 162.694 55.3101 162.694 52.1032C162.694 51.116 162.858 50.1951 163.173 49.3596L165.245 47.2667C165.111 47.8733 165.037 48.5075 165.037 49.1721C165.037 52.5554 166.484 53.9424 168.865 54.8799ZM176.015 63.7781C174.842 64.2744 173.494 64.5419 172.059 64.5419C168.748 64.5419 166.221 63.6595 164.373 61.8534L167.143 59.0436C169.1 60.9683 171.755 61.9086 175.233 61.9086C176.307 61.9086 177.333 61.7597 178.284 61.4867L176.012 63.7781H176.015ZM179.189 60.5767C178.016 61.0758 176.668 61.3406 175.236 61.3406C171.919 61.3406 169.396 60.4554 167.542 58.6438L170.407 55.7347C172.368 57.6649 175.028 58.6079 178.508 58.6079C179.58 58.6079 180.605 58.459 181.557 58.1888L179.189 60.5767ZM182.462 57.2761C181.289 57.7724 179.941 58.0399 178.508 58.0399C175.186 58.0399 172.655 57.152 170.806 55.3294L173.338 52.7595C175.298 54.6952 177.961 55.6437 181.45 55.6437C182.522 55.6437 183.544 55.4948 184.496 55.2246L182.462 57.2789V57.2761ZM185.398 54.3119C184.225 54.811 182.88 55.0757 181.447 55.0757C178.117 55.0757 175.586 54.1823 173.732 52.3569L176.723 49.321C178.683 51.2622 181.349 52.2135 184.846 52.2135C185.918 52.2135 186.94 52.0646 187.892 51.7944L185.395 54.3119H185.398ZM188.797 50.8844C187.624 51.3808 186.281 51.6482 184.849 51.6482C181.51 51.6482 178.976 50.7521 177.125 48.9184L179.096 46.9192C182.489 49.4616 185.382 49.6849 188.285 49.6849C188.931 49.6849 189.546 49.6325 190.136 49.5333L188.797 50.8844ZM156.997 58.4149C156.997 56.7053 157.513 55.208 158.489 54.0803L159.334 53.2282C159.2 53.8349 159.124 54.4691 159.124 55.1336C159.124 58.5307 160.584 59.9122 162.981 60.8497L160.499 63.3673C158.052 62.5869 157.002 61.0896 157.002 58.4094M162.897 73.2195C160.739 73.2195 158.241 72.8831 155.684 70.6744L158.085 68.2341C160.04 70.1395 162.683 71.0715 166.147 71.0715C167.225 71.0715 168.25 70.9198 169.204 70.6468L168.491 71.3665C167.093 72.5577 165.109 73.2168 162.894 73.2168M189.286 35.3298L190.719 35.7627C194.035 36.7526 195.449 38.2885 195.449 40.9081C195.449 43.2657 194.798 45.0221 193.51 46.1306C192.034 47.3908 190.371 47.9809 188.285 47.9809C185.644 47.9809 183.2 47.7989 180.299 45.6977L182.462 43.5028C184.195 44.3741 186.12 44.8843 187.717 44.8843C189.819 44.8843 191.287 43.6269 191.287 41.8291C191.287 39.6672 188.775 38.9558 187.43 38.5698L187.26 38.5229C183.613 37.4778 182.019 36.6561 182.019 33.1818C182.019 29.3104 184.676 26.7101 188.635 26.7101C190.675 26.7101 192.567 27.1651 194.511 28.1385L192.676 30.3058C191.656 29.9418 190.571 29.7571 189.439 29.7571C187.837 29.7571 186.183 30.758 186.183 32.4345C186.183 34.3178 188.179 34.9713 189.283 35.3353" fill="white"/>
<path d="M210.229 32.5312L207.328 41.1758H214.352L211.5 32.5312H210.229ZM209.685 39.4744L210.858 35.9753L212.014 39.4744H209.682H209.685Z" fill="white"/>
<path d="M248.148 23.3955L239.604 0.511719H232.531L207.241 25.789L198.276 49.307H206.04L207.536 45.5156H214.12L215.53 49.307L222.502 49.2601L248.151 23.3955H248.148ZM220.569 21.1786L228.061 41.2416L225.04 44.2885L217.548 24.2255L220.569 21.1786ZM221.007 20.7401L223.511 18.2171L231.003 38.2773L228.498 40.8031L221.007 20.7429V20.7401ZM223.949 17.7732L226.666 15.035L234.155 35.1008L231.44 37.8389L223.951 17.7732H223.949ZM227.101 14.5939L229.865 11.8034L237.357 31.8663L234.59 34.6568L227.101 14.5939ZM230.303 11.3649L232.815 8.83085L240.307 28.8938L237.794 31.4279L230.303 11.3677V11.3649ZM233.253 8.38691L235.976 5.64052L243.467 25.7035L240.739 28.4554L233.25 8.38967L233.253 8.38691ZM231.795 7.44939H228.042L230.639 4.82984H234.393L231.798 7.44939H231.795ZM231.232 8.01742L228.845 10.4246H225.091L227.476 8.01742H231.229H231.232ZM228.285 10.9899L225.641 13.6536H221.89L224.531 10.9899H228.285ZM225.083 14.2216L222.491 16.8329H218.737L221.329 14.2216H225.083ZM221.928 17.4009L219.549 19.7999H215.796L218.172 17.4009H221.928ZM218.986 20.3679L216.091 23.2852H212.337L215.232 20.3679H218.986ZM217.113 24.6667L224.605 44.7297L222.434 46.9191L214.943 26.8561L217.113 24.6667ZM243.905 25.2623L236.411 5.20209L238.691 2.9024L246.179 22.9681L243.902 25.2651L243.905 25.2623ZM233.228 2.2158H236.982L234.953 4.26181H231.199L233.228 2.2158ZM211.777 23.8533H215.53L213.611 25.789H209.857L211.777 23.8533ZM216.698 47.6057L215.29 43.8142H206.388L204.895 47.6057H200.731L208.403 27.4931H213.379L220.886 47.6057H216.701H216.698Z" fill="white"/>
</g>
<defs>
<clipPath id="clip0_200_2">
<rect width="248" height="76" fill="white" transform="translate(0.147949 0.15625)"/>
</clipPath>
</defs>
</svg>
